<?xml version="1.0" encoding="utf-8" standalone="no"?>
<!DOCTYPE svg PUBLIC "-//W3C//DTD SVG 1.1//EN"
  "http://www.w3.org/Graphics/SVG/1.1/DTD/svg11.dtd">
<!-- Created with matplotlib (http://matplotlib.org/) -->
<svg height="345pt" version="1.1" viewBox="0 0 460 345" width="460pt" xmlns="http://www.w3.org/2000/svg" xmlns:xlink="http://www.w3.org/1999/xlink">
 <defs>
  <style type="text/css">
*{stroke-linecap:butt;stroke-linejoin:round;}
  </style>
 </defs>
 <g id="figure_1">
  <g id="patch_1">
   <path d="M 0 345.6 
L 460.8 345.6 
L 460.8 0 
L 0 0 
z
" style="fill:#ffffff;"/>
  </g>
  <g id="axes_1">
   <g id="patch_2">
    <path d="M 57.6 307.584 
L 414.72 307.584 
L 414.72 41.472 
L 57.6 41.472 
z
" style="fill:#ffffff;"/>
   </g>
   <g id="PolyCollection_1">
    <path clip-path="url(#p02059b3f7b)" d="M 73.832727 211.972248 
L 73.832727 280.084159 
L 74.92584 280.444855 
L 76.018953 280.595621 
L 77.112066 280.425978 
L 78.205179 279.926258 
L 79.298292 277.866988 
L 80.391405 275.970446 
L 81.484518 273.095326 
L 82.577631 266.86404 
L 83.670744 258.325088 
L 84.763857 241.110394 
L 85.85697 220.423558 
L 86.950083 209.000994 
L 88.043196 209.073642 
L 89.136309 208.49883 
L 90.229421 207.797777 
L 91.322534 207.357591 
L 92.415647 207.762332 
L 93.50876 207.242005 
L 94.601873 206.165519 
L 95.694986 206.13816 
L 96.788099 206.054894 
L 97.881212 205.534627 
L 98.974325 205.199777 
L 100.067438 205.394534 
L 101.160551 206.281657 
L 102.253664 206.088751 
L 103.346777 206.082523 
L 104.43989 206.562402 
L 105.533003 206.639538 
L 106.626116 207.053748 
L 107.719229 206.775417 
L 108.812342 207.07183 
L 109.905455 208.033356 
L 110.998567 207.953662 
L 112.09168 207.514951 
L 113.184793 207.538493 
L 114.277906 207.782815 
L 115.371019 207.775057 
L 116.464132 207.302628 
L 117.557245 207.455408 
L 118.650358 207.924888 
L 119.743471 210.812304 
L 120.836584 221.131764 
L 121.929697 226.019183 
L 123.02281 229.613734 
L 124.115923 238.090904 
L 125.209036 246.004991 
L 126.302149 249.574968 
L 127.395262 252.211594 
L 128.488375 257.888397 
L 129.581488 263.575029 
L 130.674601 265.548077 
L 131.767713 265.076715 
L 132.860826 266.791334 
L 133.953939 269.48634 
L 135.047052 271.260871 
L 136.140165 272.456644 
L 137.233278 274.888941 
L 138.326391 277.716417 
L 139.419504 278.121958 
L 140.512617 277.352764 
L 141.60573 277.225282 
L 142.698843 276.922484 
L 143.791956 275.704812 
L 144.885069 274.883047 
L 145.978182 272.949014 
L 147.071295 268.61737 
L 148.164408 262.52671 
L 149.257521 258.213471 
L 150.350634 254.386695 
L 151.443747 248.264541 
L 152.53686 242.011277 
L 153.629972 237.787325 
L 154.723085 232.686282 
L 155.816198 224.887014 
L 156.909311 214.93006 
L 158.002424 209.780476 
L 159.095537 208.488341 
L 160.18865 208.168065 
L 161.281763 208.308492 
L 162.374876 208.600039 
L 163.467989 209.00795 
L 164.561102 208.356082 
L 165.654215 207.909495 
L 166.747328 207.327007 
L 167.840441 207.091295 
L 168.933554 206.548933 
L 170.026667 205.830974 
L 171.11978 206.656848 
L 172.212893 206.590783 
L 173.306006 206.359282 
L 174.399118 206.134553 
L 175.492231 206.23266 
L 176.585344 206.692109 
L 177.678457 206.748027 
L 178.77157 206.940473 
L 179.864683 207.32855 
L 180.957796 207.626508 
L 182.050909 207.720649 
L 183.144022 207.882664 
L 184.237135 207.69522 
L 185.330248 208.12681 
L 186.423361 208.117241 
L 187.516474 208.093662 
L 188.609587 208.059217 
L 189.7027 208.035756 
L 190.795813 208.187641 
L 191.888926 208.131869 
L 192.982039 209.621087 
L 194.075152 210.362654 
L 195.168264 211.434329 
L 196.261377 214.111965 
L 197.35449 215.911412 
L 198.447603 221.976562 
L 199.540716 229.155085 
L 200.633829 234.297713 
L 201.726942 235.391147 
L 202.820055 236.246748 
L 203.913168 242.350403 
L 205.006281 248.657914 
L 206.099394 253.823434 
L 207.192507 257.93164 
L 208.28562 262.774779 
L 209.378733 267.25747 
L 210.471846 269.482665 
L 211.564959 270.039214 
L 212.658072 271.55154 
L 213.751185 273.839917 
L 214.844298 276.129696 
L 215.93741 278.386922 
L 217.030523 280.363998 
L 218.123636 281.918409 
L 219.216749 282.755361 
L 220.309862 283.134174 
L 221.402975 283.014186 
L 222.496088 282.78494 
L 223.589201 282.596577 
L 224.682314 281.945493 
L 225.775427 281.318989 
L 226.86854 279.771266 
L 227.961653 277.780663 
L 229.054766 274.432952 
L 230.147879 269.697266 
L 231.240992 264.628129 
L 232.334105 257.517436 
L 233.427218 250.955363 
L 234.520331 243.11841 
L 235.613444 231.674389 
L 236.706556 220.658414 
L 237.799669 212.072366 
L 238.892782 208.586933 
L 239.985895 208.788753 
L 241.079008 208.282 
L 242.172121 207.990649 
L 243.265234 207.795863 
L 244.358347 207.619343 
L 245.45146 207.576559 
L 246.544573 207.714078 
L 247.637686 207.489236 
L 248.730799 207.284564 
L 249.823912 207.535194 
L 250.917025 207.444731 
L 252.010138 207.608963 
L 253.103251 207.174102 
L 254.196364 207.36884 
L 255.289477 207.506784 
L 256.38259 207.584469 
L 257.475702 207.743816 
L 258.568815 207.531673 
L 259.661928 208.061459 
L 260.755041 207.980554 
L 261.848154 207.972262 
L 262.941267 208.871445 
L 264.03438 211.924947 
L 265.127493 212.917697 
L 266.220606 215.141353 
L 267.313719 224.60567 
L 268.406832 232.37463 
L 269.499945 235.916787 
L 270.593058 236.093157 
L 271.686171 237.083916 
L 272.779284 237.589556 
L 273.872397 234.177751 
L 274.96551 231.556897 
L 276.058623 230.785849 
L 277.151736 232.694147 
L 278.244848 237.01135 
L 279.337961 241.009982 
L 280.431074 246.50274 
L 281.524187 250.959652 
L 282.6173 255.654287 
L 283.710413 259.412173 
L 284.803526 261.715559 
L 285.896639 264.937122 
L 286.989752 268.426429 
L 288.082865 271.217392 
L 289.175978 273.036727 
L 290.269091 276.453226 
L 291.362204 279.604424 
L 292.455317 280.926974 
L 293.54843 281.807842 
L 294.641543 281.989351 
L 295.734656 281.402087 
L 296.827769 279.649639 
L 297.920882 277.392528 
L 299.013994 273.682118 
L 300.107107 269.477405 
L 301.20022 262.981594 
L 302.293333 253.000264 
L 303.386446 241.252777 
L 304.479559 230.964837 
L 305.572672 218.231011 
L 306.665785 208.688342 
L 307.758898 208.261823 
L 308.852011 208.407621 
L 309.945124 208.544243 
L 311.038237 208.719965 
L 312.13135 207.829514 
L 313.224463 207.658959 
L 314.317576 207.305682 
L 315.410689 206.561735 
L 316.503802 205.970719 
L 317.596915 205.781204 
L 318.690028 205.58637 
L 319.78314 205.748641 
L 320.876253 205.907975 
L 321.969366 206.399372 
L 323.062479 206.793142 
L 324.155592 206.555177 
L 325.248705 207.222511 
L 326.341818 207.362634 
L 327.434931 207.508817 
L 328.528044 207.268498 
L 329.621157 207.225871 
L 330.71427 207.093132 
L 331.807383 206.78756 
L 332.900496 207.224358 
L 333.993609 207.209257 
L 335.086722 207.540938 
L 336.179835 207.921386 
L 337.272948 214.733475 
L 338.366061 221.187787 
L 339.459174 222.838543 
L 340.552287 226.26691 
L 341.645399 232.771769 
L 342.738512 242.264666 
L 343.831625 249.542137 
L 344.924738 254.117869 
L 346.017851 262.364886 
L 347.110964 268.838823 
L 348.204077 271.777686 
L 349.29719 273.165008 
L 350.390303 274.436813 
L 351.483416 276.366665 
L 352.576529 277.66593 
L 353.669642 277.490894 
L 354.762755 277.617192 
L 355.855868 277.766022 
L 356.948981 278.081085 
L 358.042094 277.027323 
L 359.135207 276.490064 
L 360.22832 276.637569 
L 361.321433 276.953103 
L 362.414545 278.053192 
L 363.507658 279.062042 
L 364.600771 280.626222 
L 365.693884 281.425387 
L 366.786997 282.254633 
L 367.88011 282.95751 
L 368.973223 283.332912 
L 370.066336 283.642035 
L 371.159449 283.632534 
L 372.252562 283.276091 
L 373.345675 282.539521 
L 374.438788 281.723556 
L 375.531901 279.984117 
L 376.625014 277.529222 
L 377.718127 274.810058 
L 378.81124 270.75084 
L 379.904353 264.10947 
L 380.997466 258.122842 
L 382.090579 253.258516 
L 383.183691 246.636682 
L 384.276804 238.365195 
L 385.369917 229.353406 
L 386.46303 225.269389 
L 387.556143 220.709981 
L 388.649256 215.963544 
L 389.742369 212.644028 
L 390.835482 208.937892 
L 391.928595 210.901163 
L 393.021708 212.927113 
L 394.114821 211.501927 
L 395.207934 210.759892 
L 396.301047 213.552508 
L 397.39416 216.107046 
L 398.487273 213.33793 
L 398.487273 196.54573 
L 398.487273 196.54573 
L 397.39416 200.245779 
L 396.301047 197.300542 
L 395.207934 192.76438 
L 394.114821 194.259656 
L 393.021708 196.227119 
L 391.928595 192.769667 
L 390.835482 189.559307 
L 389.742369 194.909748 
L 388.649256 200.223294 
L 387.556143 203.8456 
L 386.46303 205.064197 
L 385.369917 206.076978 
L 384.276804 208.502596 
L 383.183691 210.668575 
L 382.090579 211.889534 
L 380.997466 212.050564 
L 379.904353 212.090212 
L 378.81124 212.688388 
L 377.718127 212.539081 
L 376.625014 212.426901 
L 375.531901 212.295944 
L 374.438788 212.357476 
L 373.345675 212.097915 
L 372.252562 212.133611 
L 371.159449 212.088086 
L 370.066336 212.046983 
L 368.973223 211.956078 
L 367.88011 211.965185 
L 366.786997 212.170248 
L 365.693884 212.189284 
L 364.600771 211.937618 
L 363.507658 211.956382 
L 362.414545 212.032512 
L 361.321433 212.147942 
L 360.22832 212.233199 
L 359.135207 212.221242 
L 358.042094 212.3568 
L 356.948981 212.166618 
L 355.855868 212.141649 
L 354.762755 212.159621 
L 353.669642 212.199688 
L 352.576529 212.143886 
L 351.483416 212.066741 
L 350.390303 212.21817 
L 349.29719 212.363394 
L 348.204077 212.29523 
L 347.110964 211.972535 
L 346.017851 211.511985 
L 344.924738 211.274908 
L 343.831625 211.018741 
L 342.738512 209.197923 
L 341.645399 206.733342 
L 340.552287 205.179023 
L 339.459174 204.325012 
L 338.366061 203.860859 
L 337.272948 197.975605 
L 336.179835 185.489725 
L 335.086722 172.980154 
L 333.993609 154.55521 
L 332.900496 140.102485 
L 331.807383 125.578604 
L 330.71427 117.460796 
L 329.621157 116.030663 
L 328.528044 115.975554 
L 327.434931 118.693178 
L 326.341818 120.560192 
L 325.248705 119.975517 
L 324.155592 110.092163 
L 323.062479 104.063602 
L 321.969366 98.1484 
L 320.876253 89.588855 
L 319.78314 82.944236 
L 318.690028 78.028761 
L 317.596915 75.712399 
L 316.503802 75.356802 
L 315.410689 77.202233 
L 314.317576 85.405245 
L 313.224463 98.555974 
L 312.13135 108.962993 
L 311.038237 127.010997 
L 309.945124 156.914617 
L 308.852011 170.441299 
L 307.758898 175.007066 
L 306.665785 183.119209 
L 305.572672 199.417518 
L 304.479559 206.580158 
L 303.386446 209.236275 
L 302.293333 212.155108 
L 301.20022 212.40881 
L 300.107107 212.669514 
L 299.013994 212.603819 
L 297.920882 212.508061 
L 296.827769 212.269143 
L 295.734656 212.380594 
L 294.641543 212.254647 
L 293.54843 212.284713 
L 292.455317 212.010648 
L 291.362204 211.86704 
L 290.269091 211.864299 
L 289.175978 212.419945 
L 288.082865 212.3202 
L 286.989752 212.038674 
L 285.896639 211.811229 
L 284.803526 211.764684 
L 283.710413 211.651086 
L 282.6173 211.70937 
L 281.524187 211.087808 
L 280.431074 210.461058 
L 279.337961 208.904322 
L 278.244848 207.918768 
L 277.151736 206.829311 
L 276.058623 206.38591 
L 274.96551 206.650592 
L 273.872397 207.297852 
L 272.779284 208.168606 
L 271.686171 207.932874 
L 270.593058 207.725619 
L 269.499945 207.687009 
L 268.406832 206.736459 
L 267.313719 204.619229 
L 266.220606 198.9773 
L 265.127493 195.858443 
L 264.03438 195.440163 
L 262.941267 189.660552 
L 261.848154 183.91138 
L 260.755041 179.023283 
L 259.661928 177.304729 
L 258.568815 168.576771 
L 257.475702 159.538912 
L 256.38259 153.883212 
L 255.289477 145.649868 
L 254.196364 138.782062 
L 253.103251 130.606327 
L 252.010138 128.723663 
L 250.917025 127.114063 
L 249.823912 126.676793 
L 248.730799 123.919981 
L 247.637686 122.791674 
L 246.544573 126.685664 
L 245.45146 128.039295 
L 244.358347 128.454605 
L 243.265234 131.811849 
L 242.172121 139.272839 
L 241.079008 149.929444 
L 239.985895 162.995222 
L 238.892782 177.937953 
L 237.799669 192.781068 
L 236.706556 203.251485 
L 235.613444 206.718304 
L 234.520331 209.71136 
L 233.427218 211.444093 
L 232.334105 212.229408 
L 231.240992 212.022727 
L 230.147879 212.654524 
L 229.054766 212.630718 
L 227.961653 212.405145 
L 226.86854 212.25914 
L 225.775427 212.370866 
L 224.682314 212.311004 
L 223.589201 212.106132 
L 222.496088 211.984775 
L 221.402975 212.036381 
L 220.309862 211.968509 
L 219.216749 212.061292 
L 218.123636 212.197445 
L 217.030523 211.79705 
L 215.93741 211.95361 
L 214.844298 212.037147 
L 213.751185 212.220181 
L 212.658072 212.293793 
L 211.564959 212.360758 
L 210.471846 212.3137 
L 209.378733 211.966176 
L 208.28562 211.619361 
L 207.192507 211.703262 
L 206.099394 211.439105 
L 205.006281 210.892376 
L 203.913168 209.242769 
L 202.820055 207.678891 
L 201.726942 207.542964 
L 200.633829 207.269798 
L 199.540716 205.901982 
L 198.447603 204.048655 
L 197.35449 199.831264 
L 196.261377 198.341674 
L 195.168264 194.514283 
L 194.075152 191.969501 
L 192.982039 191.124482 
L 191.888926 186.690773 
L 190.795813 185.378386 
L 189.7027 183.285941 
L 188.609587 180.462376 
L 187.516474 179.196362 
L 186.423361 179.497748 
L 185.330248 179.717752 
L 184.237135 172.748908 
L 183.144022 166.182848 
L 182.050909 161.809557 
L 180.957796 155.161956 
L 179.864683 144.434115 
L 178.77157 131.585819 
L 177.678457 117.73826 
L 176.585344 108.405516 
L 175.492231 98.721282 
L 174.399118 90.411018 
L 173.306006 87.468054 
L 172.212893 87.668317 
L 171.11978 90.440184 
L 170.026667 85.855866 
L 168.933554 83.281351 
L 167.840441 89.030674 
L 166.747328 97.440129 
L 165.654215 107.370746 
L 164.561102 120.620745 
L 163.467989 144.380447 
L 162.374876 174.364998 
L 161.281763 184.992192 
L 160.18865 185.790343 
L 159.095537 187.431927 
L 158.002424 191.446295 
L 156.909311 196.609899 
L 155.816198 205.06027 
L 154.723085 206.94509 
L 153.629972 208.238545 
L 152.53686 209.319185 
L 151.443747 211.13321 
L 150.350634 211.716122 
L 149.257521 211.957447 
L 148.164408 212.338545 
L 147.071295 212.716408 
L 145.978182 212.482004 
L 144.885069 212.37277 
L 143.791956 212.382857 
L 142.698843 212.328194 
L 141.60573 212.164993 
L 140.512617 212.266769 
L 139.419504 212.19577 
L 138.326391 212.000839 
L 137.233278 212.054293 
L 136.140165 212.394665 
L 135.047052 212.350663 
L 133.953939 212.193895 
L 132.860826 212.019179 
L 131.767713 212.009666 
L 130.674601 212.127584 
L 129.581488 211.772461 
L 128.488375 211.625816 
L 127.395262 211.193218 
L 126.302149 211.161216 
L 125.209036 210.311404 
L 124.115923 208.131716 
L 123.02281 206.018334 
L 121.929697 205.136664 
L 120.836584 203.17256 
L 119.743471 192.090058 
L 118.650358 182.344556 
L 117.557245 171.543368 
L 116.464132 154.074978 
L 115.371019 148.165219 
L 114.277906 148.723163 
L 113.184793 145.137331 
L 112.09168 139.780315 
L 110.998567 141.528074 
L 109.905455 151.694099 
L 108.812342 142.291246 
L 107.719229 123.95919 
L 106.626116 116.763463 
L 105.533003 108.366273 
L 104.43989 101.302612 
L 103.346777 93.185322 
L 102.253664 86.276628 
L 101.160551 85.364893 
L 100.067438 80.175528 
L 98.974325 73.370978 
L 97.881212 71.263283 
L 96.788099 72.294564 
L 95.694986 75.788187 
L 94.601873 76.896861 
L 93.50876 80.258355 
L 92.415647 96.728193 
L 91.322534 108.786613 
L 90.229421 114.129886 
L 89.136309 128.473735 
L 88.043196 149.836406 
L 86.950083 176.447609 
L 85.85697 199.575816 
L 84.763857 209.323716 
L 83.670744 212.534054 
L 82.577631 212.751112 
L 81.484518 212.49777 
L 80.391405 212.381832 
L 79.298292 212.429051 
L 78.205179 212.181718 
L 77.112066 212.096985 
L 76.018953 212.144966 
L 74.92584 212.049582 
L 73.832727 211.972248 
z
" style="fill:#008000;fill-opacity:0.4;"/>
   </g>
   <g id="matplotlib.axis_1">
    <g id="xtick_1">
     <g id="line2d_1">
      <defs>
       <path d="M 0 0 
L 0 3.5 
" id="mbcfa4d60dd" style="stroke:#000000;stroke-width:0.8;"/>
      </defs>
      <g>
       <use style="stroke:#000000;stroke-width:0.8;" x="73.832727" xlink:href="#mbcfa4d60dd" y="307.584"/>
      </g>
     </g>
     <g id="text_1">
      <!-- 0.0 -->
      <defs>
       <path d="M 31.78125 66.40625 
Q 24.171875 66.40625 20.328125 58.90625 
Q 16.5 51.421875 16.5 36.375 
Q 16.5 21.390625 20.328125 13.890625 
Q 24.171875 6.390625 31.78125 6.390625 
Q 39.453125 6.390625 43.28125 13.890625 
Q 47.125 21.390625 47.125 36.375 
Q 47.125 51.421875 43.28125 58.90625 
Q 39.453125 66.40625 31.78125 66.40625 
z
M 31.78125 74.21875 
Q 44.046875 74.21875 50.515625 64.515625 
Q 56.984375 54.828125 56.984375 36.375 
Q 56.984375 17.96875 50.515625 8.265625 
Q 44.046875 -1.421875 31.78125 -1.421875 
Q 19.53125 -1.421875 13.0625 8.265625 
Q 6.59375 17.96875 6.59375 36.375 
Q 6.59375 54.828125 13.0625 64.515625 
Q 19.53125 74.21875 31.78125 74.21875 
z
" id="DejaVuSans-30"/>
       <path d="M 10.6875 12.40625 
L 21 12.40625 
L 21 0 
L 10.6875 0 
z
" id="DejaVuSans-2e"/>
      </defs>
      <g transform="translate(65.881165 322.182437)scale(0.1 -0.1)">
       <use xlink:href="#DejaVuSans-30"/>
       <use x="63.623047" xlink:href="#DejaVuSans-2e"/>
       <use x="95.410156" xlink:href="#DejaVuSans-30"/>
      </g>
     </g>
    </g>
    <g id="xtick_2">
     <g id="line2d_2">
      <g>
       <use style="stroke:#000000;stroke-width:0.8;" x="138.763636" xlink:href="#mbcfa4d60dd" y="307.584"/>
      </g>
     </g>
     <g id="text_2">
      <!-- 0.2 -->
      <defs>
       <path d="M 19.1875 8.296875 
L 53.609375 8.296875 
L 53.609375 0 
L 7.328125 0 
L 7.328125 8.296875 
Q 12.9375 14.109375 22.625 23.890625 
Q 32.328125 33.6875 34.8125 36.53125 
Q 39.546875 41.84375 41.421875 45.53125 
Q 43.3125 49.21875 43.3125 52.78125 
Q 43.3125 58.59375 39.234375 62.25 
Q 35.15625 65.921875 28.609375 65.921875 
Q 23.96875 65.921875 18.8125 64.3125 
Q 13.671875 62.703125 7.8125 59.421875 
L 7.8125 69.390625 
Q 13.765625 71.78125 18.9375 73 
Q 24.125 74.21875 28.421875 74.21875 
Q 39.75 74.21875 46.484375 68.546875 
Q 53.21875 62.890625 53.21875 53.421875 
Q 53.21875 48.921875 51.53125 44.890625 
Q 49.859375 40.875 45.40625 35.40625 
Q 44.1875 33.984375 37.640625 27.21875 
Q 31.109375 20.453125 19.1875 8.296875 
z
" id="DejaVuSans-32"/>
      </defs>
      <g transform="translate(130.812074 322.182437)scale(0.1 -0.1)">
       <use xlink:href="#DejaVuSans-30"/>
       <use x="63.623047" xlink:href="#DejaVuSans-2e"/>
       <use x="95.410156" xlink:href="#DejaVuSans-32"/>
      </g>
     </g>
    </g>
    <g id="xtick_3">
     <g id="line2d_3">
      <g>
       <use style="stroke:#000000;stroke-width:0.8;" x="203.694545" xlink:href="#mbcfa4d60dd" y="307.584"/>
      </g>
     </g>
     <g id="text_3">
      <!-- 0.4 -->
      <defs>
       <path d="M 37.796875 64.3125 
L 12.890625 25.390625 
L 37.796875 25.390625 
z
M 35.203125 72.90625 
L 47.609375 72.90625 
L 47.609375 25.390625 
L 58.015625 25.390625 
L 58.015625 17.1875 
L 47.609375 17.1875 
L 47.609375 0 
L 37.796875 0 
L 37.796875 17.1875 
L 4.890625 17.1875 
L 4.890625 26.703125 
z
" id="DejaVuSans-34"/>
      </defs>
      <g transform="translate(195.742983 322.182437)scale(0.1 -0.1)">
       <use xlink:href="#DejaVuSans-30"/>
       <use x="63.623047" xlink:href="#DejaVuSans-2e"/>
       <use x="95.410156" xlink:href="#DejaVuSans-34"/>
      </g>
     </g>
    </g>
    <g id="xtick_4">
     <g id="line2d_4">
      <g>
       <use style="stroke:#000000;stroke-width:0.8;" x="268.625455" xlink:href="#mbcfa4d60dd" y="307.584"/>
      </g>
     </g>
     <g id="text_4">
      <!-- 0.6 -->
      <defs>
       <path d="M 33.015625 40.375 
Q 26.375 40.375 22.484375 35.828125 
Q 18.609375 31.296875 18.609375 23.390625 
Q 18.609375 15.53125 22.484375 10.953125 
Q 26.375 6.390625 33.015625 6.390625 
Q 39.65625 6.390625 43.53125 10.953125 
Q 47.40625 15.53125 47.40625 23.390625 
Q 47.40625 31.296875 43.53125 35.828125 
Q 39.65625 40.375 33.015625 40.375 
z
M 52.59375 71.296875 
L 52.59375 62.3125 
Q 48.875 64.0625 45.09375 64.984375 
Q 41.3125 65.921875 37.59375 65.921875 
Q 27.828125 65.921875 22.671875 59.328125 
Q 17.53125 52.734375 16.796875 39.40625 
Q 19.671875 43.65625 24.015625 45.921875 
Q 28.375 48.1875 33.59375 48.1875 
Q 44.578125 48.1875 50.953125 41.515625 
Q 57.328125 34.859375 57.328125 23.390625 
Q 57.328125 12.15625 50.6875 5.359375 
Q 44.046875 -1.421875 33.015625 -1.421875 
Q 20.359375 -1.421875 13.671875 8.265625 
Q 6.984375 17.96875 6.984375 36.375 
Q 6.984375 53.65625 15.1875 63.9375 
Q 23.390625 74.21875 37.203125 74.21875 
Q 40.921875 74.21875 44.703125 73.484375 
Q 48.484375 72.75 52.59375 71.296875 
z
" id="DejaVuSans-36"/>
      </defs>
      <g transform="translate(260.673892 322.182437)scale(0.1 -0.1)">
       <use xlink:href="#DejaVuSans-30"/>
       <use x="63.623047" xlink:href="#DejaVuSans-2e"/>
       <use x="95.410156" xlink:href="#DejaVuSans-36"/>
      </g>
     </g>
    </g>
    <g id="xtick_5">
     <g id="line2d_5">
      <g>
       <use style="stroke:#000000;stroke-width:0.8;" x="333.556364" xlink:href="#mbcfa4d60dd" y="307.584"/>
      </g>
     </g>
     <g id="text_5">
      <!-- 0.8 -->
      <defs>
       <path d="M 31.78125 34.625 
Q 24.75 34.625 20.71875 30.859375 
Q 16.703125 27.09375 16.703125 20.515625 
Q 16.703125 13.921875 20.71875 10.15625 
Q 24.75 6.390625 31.78125 6.390625 
Q 38.8125 6.390625 42.859375 10.171875 
Q 46.921875 13.96875 46.921875 20.515625 
Q 46.921875 27.09375 42.890625 30.859375 
Q 38.875 34.625 31.78125 34.625 
z
M 21.921875 38.8125 
Q 15.578125 40.375 12.03125 44.71875 
Q 8.5 49.078125 8.5 55.328125 
Q 8.5 64.0625 14.71875 69.140625 
Q 20.953125 74.21875 31.78125 74.21875 
Q 42.671875 74.21875 48.875 69.140625 
Q 55.078125 64.0625 55.078125 55.328125 
Q 55.078125 49.078125 51.53125 44.71875 
Q 48 40.375 41.703125 38.8125 
Q 48.828125 37.15625 52.796875 32.3125 
Q 56.78125 27.484375 56.78125 20.515625 
Q 56.78125 9.90625 50.3125 4.234375 
Q 43.84375 -1.421875 31.78125 -1.421875 
Q 19.734375 -1.421875 13.25 4.234375 
Q 6.78125 9.90625 6.78125 20.515625 
Q 6.78125 27.484375 10.78125 32.3125 
Q 14.796875 37.15625 21.921875 38.8125 
z
M 18.3125 54.390625 
Q 18.3125 48.734375 21.84375 45.5625 
Q 25.390625 42.390625 31.78125 42.390625 
Q 38.140625 42.390625 41.71875 45.5625 
Q 45.3125 48.734375 45.3125 54.390625 
Q 45.3125 60.0625 41.71875 63.234375 
Q 38.140625 66.40625 31.78125 66.40625 
Q 25.390625 66.40625 21.84375 63.234375 
Q 18.3125 60.0625 18.3125 54.390625 
z
" id="DejaVuSans-38"/>
      </defs>
      <g transform="translate(325.604801 322.182437)scale(0.1 -0.1)">
       <use xlink:href="#DejaVuSans-30"/>
       <use x="63.623047" xlink:href="#DejaVuSans-2e"/>
       <use x="95.410156" xlink:href="#DejaVuSans-38"/>
      </g>
     </g>
    </g>
    <g id="xtick_6">
     <g id="line2d_6">
      <g>
       <use style="stroke:#000000;stroke-width:0.8;" x="398.487273" xlink:href="#mbcfa4d60dd" y="307.584"/>
      </g>
     </g>
     <g id="text_6">
      <!-- 1.0 -->
      <defs>
       <path d="M 12.40625 8.296875 
L 28.515625 8.296875 
L 28.515625 63.921875 
L 10.984375 60.40625 
L 10.984375 69.390625 
L 28.421875 72.90625 
L 38.28125 72.90625 
L 38.28125 8.296875 
L 54.390625 8.296875 
L 54.390625 0 
L 12.40625 0 
z
" id="DejaVuSans-31"/>
      </defs>
      <g transform="translate(390.53571 322.182437)scale(0.1 -0.1)">
       <use xlink:href="#DejaVuSans-31"/>
       <use x="63.623047" xlink:href="#DejaVuSans-2e"/>
       <use x="95.410156" xlink:href="#DejaVuSans-30"/>
      </g>
     </g>
    </g>
   </g>
   <g id="matplotlib.axis_2">
    <g id="ytick_1">
     <g id="line2d_7">
      <defs>
       <path d="M 0 0 
L -3.5 0 
" id="m04a25400e5" style="stroke:#000000;stroke-width:0.8;"/>
      </defs>
      <g>
       <use style="stroke:#000000;stroke-width:0.8;" x="57.6" xlink:href="#m04a25400e5" y="299.17887"/>
      </g>
     </g>
     <g id="text_7">
      <!-- 0.0 -->
      <g transform="translate(34.696875 302.978089)scale(0.1 -0.1)">
       <use xlink:href="#DejaVuSans-30"/>
       <use x="63.623047" xlink:href="#DejaVuSans-2e"/>
       <use x="95.410156" xlink:href="#DejaVuSans-30"/>
      </g>
     </g>
    </g>
    <g id="ytick_2">
     <g id="line2d_8">
      <g>
       <use style="stroke:#000000;stroke-width:0.8;" x="57.6" xlink:href="#m04a25400e5" y="249.553394"/>
      </g>
     </g>
     <g id="text_8">
      <!-- 0.2 -->
      <g transform="translate(34.696875 253.352613)scale(0.1 -0.1)">
       <use xlink:href="#DejaVuSans-30"/>
       <use x="63.623047" xlink:href="#DejaVuSans-2e"/>
       <use x="95.410156" xlink:href="#DejaVuSans-32"/>
      </g>
     </g>
    </g>
    <g id="ytick_3">
     <g id="line2d_9">
      <g>
       <use style="stroke:#000000;stroke-width:0.8;" x="57.6" xlink:href="#m04a25400e5" y="199.927919"/>
      </g>
     </g>
     <g id="text_9">
      <!-- 0.4 -->
      <g transform="translate(34.696875 203.727138)scale(0.1 -0.1)">
       <use xlink:href="#DejaVuSans-30"/>
       <use x="63.623047" xlink:href="#DejaVuSans-2e"/>
       <use x="95.410156" xlink:href="#DejaVuSans-34"/>
      </g>
     </g>
    </g>
    <g id="ytick_4">
     <g id="line2d_10">
      <g>
       <use style="stroke:#000000;stroke-width:0.8;" x="57.6" xlink:href="#m04a25400e5" y="150.302443"/>
      </g>
     </g>
     <g id="text_10">
      <!-- 0.6 -->
      <g transform="translate(34.696875 154.101662)scale(0.1 -0.1)">
       <use xlink:href="#DejaVuSans-30"/>
       <use x="63.623047" xlink:href="#DejaVuSans-2e"/>
       <use x="95.410156" xlink:href="#DejaVuSans-36"/>
      </g>
     </g>
    </g>
    <g id="ytick_5">
     <g id="line2d_11">
      <g>
       <use style="stroke:#000000;stroke-width:0.8;" x="57.6" xlink:href="#m04a25400e5" y="100.676968"/>
      </g>
     </g>
     <g id="text_11">
      <!-- 0.8 -->
      <g transform="translate(34.696875 104.476186)scale(0.1 -0.1)">
       <use xlink:href="#DejaVuSans-30"/>
       <use x="63.623047" xlink:href="#DejaVuSans-2e"/>
       <use x="95.410156" xlink:href="#DejaVuSans-38"/>
      </g>
     </g>
    </g>
    <g id="ytick_6">
     <g id="line2d_12">
      <g>
       <use style="stroke:#000000;stroke-width:0.8;" x="57.6" xlink:href="#m04a25400e5" y="51.051492"/>
      </g>
     </g>
     <g id="text_12">
      <!-- 1.0 -->
      <g transform="translate(34.696875 54.850711)scale(0.1 -0.1)">
       <use xlink:href="#DejaVuSans-31"/>
       <use x="63.623047" xlink:href="#DejaVuSans-2e"/>
       <use x="95.410156" xlink:href="#DejaVuSans-30"/>
      </g>
     </g>
    </g>
   </g>
   <g id="line2d_13">
    <path clip-path="url(#p02059b3f7b)" d="M 73.832727 286.596355 
L 74.92584 286.764114 
L 76.018953 286.093054 
L 77.112066 285.086451 
L 78.205179 278.711289 
L 79.298292 276.194781 
L 80.391405 269.316244 
L 81.484518 258.411542 
L 82.577631 245.661268 
L 83.670744 224.522553 
L 84.763857 206.739263 
L 85.85697 186.607201 
L 88.043196 142.65218 
L 89.136309 124.868891 
L 90.229421 119.332673 
L 91.322534 104.40136 
L 92.415647 76.719773 
L 93.50876 67.324926 
L 94.601873 65.143887 
L 95.694986 54.574653 
L 96.788099 53.568 
L 97.881212 61.78846 
L 98.974325 79.571997 
L 100.067438 85.779152 
L 101.160551 87.456989 
L 102.253664 103.394707 
L 105.533003 130.405357 
L 106.626116 142.484446 
L 107.719229 161.609856 
L 108.812342 163.95863 
L 109.905455 152.047275 
L 110.998567 154.396049 
L 112.09168 159.932267 
L 113.184793 161.945572 
L 114.277906 159.932267 
L 115.371019 168.991645 
L 116.464132 184.761877 
L 117.557245 189.962627 
L 118.650358 202.712901 
L 119.743471 213.953319 
L 120.836584 215.463174 
L 121.929697 220.328456 
L 124.115923 236.433907 
L 125.209036 238.614947 
L 126.302149 241.131455 
L 127.395262 250.52655 
L 128.488375 256.398236 
L 129.581488 259.250212 
L 130.674601 257.069421 
L 131.767713 260.92805 
L 132.860826 265.289881 
L 135.047052 269.819694 
L 137.233278 280.892279 
L 138.326391 280.892279 
L 139.419504 278.54353 
L 140.512617 279.550133 
L 141.60573 277.704686 
L 142.698843 275.188178 
L 143.791956 274.684901 
L 144.885069 269.819694 
L 147.071295 251.532955 
L 148.164408 247.674326 
L 149.257521 242.64131 
L 150.350634 234.588584 
L 151.443747 229.555568 
L 152.53686 225.361471 
L 153.629972 220.49619 
L 154.723085 214.288787 
L 155.816198 200.867329 
L 156.909311 196.337764 
L 158.002424 193.150071 
L 159.095537 192.143419 
L 160.18865 190.298095 
L 161.281763 182.077387 
L 164.561102 115.809512 
L 167.840441 77.89416 
L 168.933554 90.141231 
L 170.026667 93.496658 
L 171.11978 88.79911 
L 172.212893 89.470047 
L 173.306006 96.1809 
L 174.399118 112.622068 
L 175.492231 122.352383 
L 176.585344 133.257333 
L 177.678457 151.543825 
L 178.77157 160.435469 
L 179.864683 167.984993 
L 180.957796 174.695846 
L 182.050909 176.205701 
L 183.144022 184.929611 
L 184.237135 186.607201 
L 185.330248 187.110403 
L 186.423361 186.607201 
L 187.516474 187.781587 
L 188.609587 191.304748 
L 189.7027 191.640216 
L 190.795813 194.659926 
L 191.888926 197.176434 
L 194.075152 200.364127 
L 195.168264 205.564877 
L 196.261377 206.571529 
L 197.35449 213.785585 
L 198.447603 219.992739 
L 199.540716 224.522553 
L 200.633829 223.683634 
L 201.726942 225.361471 
L 203.913168 238.950415 
L 205.006281 244.319147 
L 206.099394 248.680979 
L 207.192507 256.230502 
L 208.28562 262.270171 
L 209.378733 264.45121 
L 210.471846 265.625349 
L 211.564959 268.309839 
L 213.751185 277.536927 
L 214.844298 281.731099 
L 215.93741 286.596355 
L 217.030523 290.119442 
L 218.123636 292.803733 
L 219.216749 293.810336 
L 220.309862 293.139251 
L 221.402975 292.635949 
L 222.496088 292.300432 
L 223.589201 289.951683 
L 224.682314 288.777321 
L 225.775427 283.744305 
L 226.86854 279.717892 
L 229.054766 263.109089 
L 230.147879 255.559566 
L 231.240992 244.486881 
L 232.334105 238.782681 
L 233.427218 229.2201 
L 234.520331 217.811948 
L 235.613444 209.255771 
L 239.985895 160.603451 
L 242.172121 142.819914 
L 243.265234 141.813509 
L 244.358347 141.645775 
L 245.45146 138.961285 
L 246.544573 134.767188 
L 247.637686 138.961285 
L 248.730799 139.464736 
L 249.823912 141.981244 
L 250.917025 140.639123 
L 252.010138 147.181993 
L 253.103251 155.234719 
L 254.196364 159.764533 
L 255.289477 168.656177 
L 256.38259 170.501501 
L 257.475702 182.580838 
L 259.661928 187.278385 
L 262.941267 202.712901 
L 264.03438 200.867329 
L 265.127493 206.403795 
L 266.220606 216.13411 
L 267.313719 223.5159 
L 268.406832 225.361471 
L 269.499945 224.690287 
L 271.686171 226.703592 
L 272.779284 222.006045 
L 273.872397 220.999392 
L 274.96551 219.489537 
L 276.058623 222.173779 
L 277.151736 227.03906 
L 278.244848 229.891037 
L 279.337961 236.769624 
L 280.431074 240.124802 
L 281.524187 247.003389 
L 282.6173 250.52655 
L 283.710413 253.54626 
L 285.896639 263.94776 
L 286.989752 267.806389 
L 288.082865 270.994081 
L 289.175978 278.879073 
L 290.269091 284.583149 
L 291.362204 287.938476 
L 292.455317 290.119442 
L 293.54843 290.287225 
L 294.641543 288.609562 
L 295.734656 283.744305 
L 296.827769 278.040229 
L 299.013994 262.941107 
L 300.107107 252.371873 
L 302.293333 226.703592 
L 303.386446 219.657271 
L 304.479559 203.048369 
L 305.572672 190.298095 
L 306.665785 182.748572 
L 307.758898 177.547822 
L 308.852011 168.991645 
L 309.945124 142.148978 
L 311.038237 121.849181 
L 314.317576 67.828129 
L 315.410689 63.801766 
L 316.503802 64.976152 
L 317.596915 72.022474 
L 318.690028 82.256239 
L 319.78314 97.187304 
L 320.876253 109.769844 
L 321.969366 114.131923 
L 323.062479 126.378994 
L 324.155592 134.599454 
L 325.248705 134.263986 
L 326.341818 129.734172 
L 327.434931 128.224317 
L 328.528044 128.72752 
L 329.621157 130.069641 
L 330.71427 144.665485 
L 331.807383 156.409106 
L 333.993609 185.600548 
L 335.086722 194.659926 
L 336.179835 208.081384 
L 337.272948 211.940013 
L 338.366061 212.778932 
L 339.459174 216.973029 
L 340.552287 222.844963 
L 341.645399 233.749665 
L 342.738512 238.614947 
L 343.831625 244.486881 
L 344.924738 256.56597 
L 346.017851 264.786678 
L 347.110964 269.316244 
L 348.204077 271.161815 
L 349.29719 273.846057 
L 350.390303 278.207988 
L 351.483416 279.885676 
L 352.576529 279.046832 
L 353.669642 280.221194 
L 354.762755 279.382374 
L 355.855868 281.395581 
L 356.948981 277.201384 
L 358.042094 277.87247 
L 359.135207 277.536927 
L 360.22832 277.87247 
L 361.321433 281.395581 
L 362.414545 283.241003 
L 363.507658 287.099657 
L 364.600771 288.94508 
L 365.693884 291.293828 
L 366.786997 293.307035 
L 367.88011 294.145854 
L 368.973223 295.320241 
L 370.066336 295.488 
L 372.252562 292.132648 
L 373.345675 289.61614 
L 376.625014 272.67167 
L 377.718127 265.961065 
L 378.81124 252.875076 
L 379.904353 246.667921 
L 380.997466 241.466923 
L 382.090579 232.910995 
L 383.183691 226.032408 
L 384.276804 215.798642 
L 385.369917 215.463174 
L 386.46303 209.255771 
L 387.556143 205.732611 
L 388.649256 199.357474 
L 389.742369 194.492192 
L 390.835482 201.203045 
L 391.928595 202.20945 
L 393.021708 198.854272 
L 394.114821 198.518555 
L 395.207934 204.39049 
L 396.301047 207.745916 
L 397.39416 200.364127 
L 398.487273 198.854272 
L 398.487273 198.854272 
" style="fill:none;stroke:#1f77b4;stroke-linecap:square;stroke-width:1.5;"/>
   </g>
   <g id="line2d_14">
    <path clip-path="url(#p02059b3f7b)" d="M 73.832727 267.478212 
L 74.92584 267.809405 
L 76.018953 267.942474 
L 77.112066 267.716412 
L 78.205179 267.215589 
L 79.298292 265.009963 
L 80.391405 263.226056 
L 81.484518 260.182202 
L 82.577631 253.541078 
L 83.670744 244.937021 
L 84.763857 228.770019 
L 86.950083 191.14311 
L 88.043196 168.063818 
L 89.136309 148.038316 
L 90.229421 133.33282 
L 91.322534 127.573845 
L 92.415647 119.05687 
L 93.50876 105.453679 
L 94.601873 100.228719 
L 95.694986 99.332913 
L 96.788099 96.231949 
L 97.881212 95.154129 
L 98.974325 97.403212 
L 100.067438 103.770599 
L 101.160551 108.092052 
L 102.253664 108.843268 
L 104.43989 122.718942 
L 106.626116 136.145228 
L 107.719229 143.670047 
L 108.812342 160.086361 
L 109.905455 164.68696 
L 110.998567 155.519053 
L 112.09168 155.797936 
L 113.184793 160.385179 
L 114.277906 162.85876 
L 115.371019 162.106181 
L 116.464132 168.813237 
L 117.557245 184.069244 
L 118.650358 192.242528 
L 119.743471 202.415956 
L 120.836584 214.660892 
L 123.02281 221.815688 
L 124.115923 229.344486 
L 125.209036 235.906179 
L 126.302149 238.68907 
L 127.395262 241.119673 
L 128.488375 246.708749 
L 129.581488 251.683634 
L 130.674601 253.270899 
L 131.767713 252.695158 
L 132.860826 254.678036 
L 133.953939 257.110723 
L 135.047052 258.763122 
L 136.140165 260.007046 
L 138.326391 265.166898 
L 139.419504 265.470975 
L 140.512617 264.675853 
L 141.60573 264.609282 
L 142.698843 264.231962 
L 143.791956 263.057433 
L 144.885069 262.308357 
L 145.978182 260.221117 
L 147.071295 255.457952 
L 148.164408 249.628523 
L 150.350634 242.356362 
L 152.53686 231.076571 
L 153.629972 227.815827 
L 154.723085 223.245341 
L 155.816198 215.931309 
L 156.909311 205.448684 
L 158.002424 198.734664 
L 159.095537 195.20054 
L 160.18865 193.941625 
L 161.281763 193.03149 
L 162.374876 184.386067 
L 164.561102 141.903406 
L 165.654215 127.94836 
L 166.747328 118.242333 
L 167.840441 111.338073 
L 168.933554 105.697182 
L 170.026667 108.796217 
L 171.11978 112.248904 
L 172.212893 109.553382 
L 173.306006 109.591827 
L 174.399118 112.827917 
L 177.678457 137.815001 
L 178.77157 150.878757 
L 179.864683 160.723504 
L 180.957796 169.387645 
L 182.050909 174.560188 
L 183.144022 177.9277 
L 184.237135 184.039245 
L 185.330248 189.01745 
L 186.423361 188.279228 
L 187.516474 188.096428 
L 188.609587 189.614812 
L 189.7027 192.33843 
L 190.795813 193.726446 
L 191.888926 195.522934 
L 192.982039 199.682494 
L 194.075152 200.132158 
L 195.168264 202.97056 
L 196.261377 206.810556 
L 197.35449 208.868127 
L 199.540716 221.507991 
L 200.633829 225.642102 
L 201.726942 226.040915 
L 202.820055 227.024079 
L 205.006281 238.196678 
L 206.099394 242.738933 
L 207.192507 246.425679 
L 209.378733 255.186315 
L 210.471846 257.03683 
L 211.564959 257.568899 
L 212.658072 259.061399 
L 214.844298 263.755564 
L 217.030523 267.567388 
L 218.123636 269.180256 
L 219.216749 270.102902 
L 220.309862 270.515336 
L 221.402975 270.422615 
L 223.589201 270.049146 
L 225.775427 268.661085 
L 226.86854 267.053606 
L 227.961653 264.977001 
L 229.054766 261.432433 
L 231.240992 251.559458 
L 232.334105 244.818786 
L 233.427218 239.023493 
L 234.520331 231.666251 
L 237.799669 201.166972 
L 239.985895 175.278152 
L 241.079008 163.513746 
L 242.172121 153.786337 
L 243.265234 147.157569 
L 244.358347 144.731656 
L 245.45146 144.540082 
L 246.544573 143.096469 
L 247.637686 139.71216 
L 249.823912 143.735551 
L 250.917025 144.172755 
L 252.010138 145.305491 
L 253.103251 148.055016 
L 254.196364 155.593666 
L 255.289477 161.208301 
L 256.38259 168.087688 
L 257.475702 172.550194 
L 258.568815 180.865849 
L 259.661928 187.019373 
L 260.755041 188.583889 
L 261.848154 193.269434 
L 264.03438 203.873987 
L 265.127493 203.769744 
L 266.220606 208.20482 
L 267.313719 217.707297 
L 268.406832 224.208198 
L 269.499945 226.633467 
L 270.593058 226.68049 
L 271.686171 227.675416 
L 272.779284 227.967585 
L 273.872397 224.659952 
L 274.96551 222.771416 
L 276.058623 222.239014 
L 277.151736 224.31183 
L 279.337961 231.233316 
L 280.431074 236.315962 
L 281.524187 240.045312 
L 282.6173 244.4854 
L 283.710413 247.664392 
L 284.803526 249.738943 
L 286.989752 256.244896 
L 288.082865 258.829931 
L 289.175978 260.598943 
L 291.362204 266.849236 
L 292.455317 268.220777 
L 293.54843 269.159323 
L 294.641543 269.373572 
L 295.734656 268.760634 
L 296.827769 266.926869 
L 297.920882 264.507862 
L 299.013994 260.792907 
L 300.107107 256.437473 
L 301.20022 249.874654 
L 304.479559 221.174122 
L 305.572672 208.959038 
L 306.665785 193.04985 
L 307.758898 184.586444 
L 308.852011 180.064083 
L 309.945124 169.681212 
L 312.13135 129.959158 
L 314.317576 108.959945 
L 315.410689 101.09569 
L 316.503802 98.974509 
L 317.596915 99.140051 
L 318.690028 101.217198 
L 319.78314 105.986311 
L 320.876253 112.69652 
L 321.969366 120.18038 
L 323.062479 124.577389 
L 324.155592 130.809989 
L 325.248705 138.669676 
L 326.341818 137.899181 
L 327.434931 136.279589 
L 328.528044 133.888952 
L 329.621157 134.204244 
L 330.71427 136.04672 
L 331.807383 145.137842 
L 333.993609 170.18707 
L 335.086722 185.118597 
L 336.179835 195.866804 
L 337.272948 207.877833 
L 338.366061 214.213871 
L 339.459174 215.430352 
L 340.552287 218.770099 
L 341.645399 224.523489 
L 342.738512 232.862217 
L 343.831625 239.003324 
L 344.924738 243.142459 
L 346.017851 250.569733 
L 347.110964 256.688948 
L 348.204077 259.379015 
L 350.390303 261.937994 
L 351.483416 263.971548 
L 352.576529 264.952308 
L 353.669642 264.862528 
L 355.855868 265.033163 
L 356.948981 265.423549 
L 358.042094 264.255156 
L 359.135207 263.859348 
L 360.22832 263.980428 
L 361.321433 264.349301 
L 363.507658 266.470565 
L 364.600771 267.890445 
L 366.786997 269.612891 
L 367.88011 270.325984 
L 370.066336 271.083037 
L 371.159449 271.063382 
L 372.252562 270.743576 
L 373.345675 270.027809 
L 374.438788 269.056914 
L 375.531901 267.207781 
L 377.718127 261.977147 
L 378.81124 257.781481 
L 379.904353 250.920302 
L 380.997466 245.561578 
L 382.090579 241.204606 
L 383.183691 234.985594 
L 385.369917 220.172745 
L 386.46303 217.174988 
L 388.649256 208.219316 
L 390.835482 197.141737 
L 391.928595 201.808623 
L 393.021708 203.988126 
L 394.114821 201.536737 
L 395.207934 201.15158 
L 396.301047 206.327126 
L 397.39416 209.019344 
L 398.487273 203.802914 
L 398.487273 203.802914 
" style="fill:none;stroke:#ff7f0e;stroke-linecap:square;stroke-width:1.5;"/>
   </g>
   <g id="line2d_15">
    <path clip-path="url(#p02059b3f7b)" d="M 73.832727 280.084159 
L 74.92584 280.444855 
L 76.018953 280.595621 
L 77.112066 280.425978 
L 78.205179 279.926258 
L 80.391405 275.970446 
L 81.484518 273.095326 
L 82.577631 266.86404 
L 83.670744 258.325088 
L 84.763857 241.110394 
L 85.85697 220.423558 
L 86.950083 209.000994 
L 88.043196 209.073642 
L 89.136309 208.49883 
L 90.229421 207.797777 
L 91.322534 207.357591 
L 92.415647 207.762332 
L 93.50876 207.242005 
L 94.601873 206.165519 
L 96.788099 206.054894 
L 97.881212 205.534627 
L 98.974325 205.199777 
L 100.067438 205.394534 
L 101.160551 206.281657 
L 102.253664 206.088751 
L 103.346777 206.082523 
L 104.43989 206.562402 
L 105.533003 206.639538 
L 106.626116 207.053748 
L 107.719229 206.775417 
L 108.812342 207.07183 
L 109.905455 208.033356 
L 110.998567 207.953662 
L 112.09168 207.514951 
L 113.184793 207.538493 
L 114.277906 207.782815 
L 115.371019 207.775057 
L 116.464132 207.302628 
L 117.557245 207.455408 
L 118.650358 207.924888 
L 119.743471 210.812304 
L 120.836584 221.131764 
L 121.929697 226.019183 
L 123.02281 229.613734 
L 125.209036 246.004991 
L 126.302149 249.574968 
L 127.395262 252.211594 
L 129.581488 263.575029 
L 130.674601 265.548077 
L 131.767713 265.076715 
L 132.860826 266.791334 
L 133.953939 269.48634 
L 135.047052 271.260871 
L 136.140165 272.456644 
L 137.233278 274.888941 
L 138.326391 277.716417 
L 139.419504 278.121958 
L 140.512617 277.352764 
L 141.60573 277.225282 
L 142.698843 276.922484 
L 143.791956 275.704812 
L 144.885069 274.883047 
L 145.978182 272.949014 
L 147.071295 268.61737 
L 148.164408 262.52671 
L 149.257521 258.213471 
L 150.350634 254.386695 
L 152.53686 242.011277 
L 153.629972 237.787325 
L 154.723085 232.686282 
L 155.816198 224.887014 
L 156.909311 214.93006 
L 158.002424 209.780476 
L 159.095537 208.488341 
L 160.18865 208.168065 
L 161.281763 208.308492 
L 162.374876 208.600039 
L 163.467989 209.00795 
L 164.561102 208.356082 
L 165.654215 207.909495 
L 166.747328 207.327007 
L 167.840441 207.091295 
L 168.933554 206.548933 
L 170.026667 205.830974 
L 171.11978 206.656848 
L 172.212893 206.590783 
L 174.399118 206.134553 
L 175.492231 206.23266 
L 176.585344 206.692109 
L 177.678457 206.748027 
L 178.77157 206.940473 
L 180.957796 207.626508 
L 183.144022 207.882664 
L 184.237135 207.69522 
L 185.330248 208.12681 
L 191.888926 208.131869 
L 192.982039 209.621087 
L 194.075152 210.362654 
L 195.168264 211.434329 
L 196.261377 214.111965 
L 197.35449 215.911412 
L 198.447603 221.976562 
L 199.540716 229.155085 
L 200.633829 234.297713 
L 201.726942 235.391147 
L 202.820055 236.246748 
L 205.006281 248.657914 
L 206.099394 253.823434 
L 207.192507 257.93164 
L 209.378733 267.25747 
L 210.471846 269.482665 
L 211.564959 270.039214 
L 212.658072 271.55154 
L 215.93741 278.386922 
L 217.030523 280.363998 
L 218.123636 281.918409 
L 219.216749 282.755361 
L 220.309862 283.134174 
L 222.496088 282.78494 
L 223.589201 282.596577 
L 225.775427 281.318989 
L 226.86854 279.771266 
L 227.961653 277.780663 
L 229.054766 274.432952 
L 231.240992 264.628129 
L 234.520331 243.11841 
L 236.706556 220.658414 
L 237.799669 212.072366 
L 238.892782 208.586933 
L 239.985895 208.788753 
L 241.079008 208.282 
L 243.265234 207.795863 
L 244.358347 207.619343 
L 245.45146 207.576559 
L 246.544573 207.714078 
L 248.730799 207.284564 
L 249.823912 207.535194 
L 250.917025 207.444731 
L 252.010138 207.608963 
L 253.103251 207.174102 
L 255.289477 207.506784 
L 257.475702 207.743816 
L 258.568815 207.531673 
L 259.661928 208.061459 
L 261.848154 207.972262 
L 262.941267 208.871445 
L 264.03438 211.924947 
L 265.127493 212.917697 
L 266.220606 215.141353 
L 267.313719 224.60567 
L 268.406832 232.37463 
L 269.499945 235.916787 
L 270.593058 236.093157 
L 271.686171 237.083916 
L 272.779284 237.589556 
L 273.872397 234.177751 
L 274.96551 231.556897 
L 276.058623 230.785849 
L 277.151736 232.694147 
L 279.337961 241.009982 
L 280.431074 246.50274 
L 283.710413 259.412173 
L 284.803526 261.715559 
L 288.082865 271.217392 
L 289.175978 273.036727 
L 291.362204 279.604424 
L 292.455317 280.926974 
L 293.54843 281.807842 
L 294.641543 281.989351 
L 295.734656 281.402087 
L 296.827769 279.649639 
L 297.920882 277.392528 
L 299.013994 273.682118 
L 300.107107 269.477405 
L 301.20022 262.981594 
L 302.293333 253.000264 
L 303.386446 241.252777 
L 304.479559 230.964837 
L 305.572672 218.231011 
L 306.665785 208.688342 
L 307.758898 208.261823 
L 311.038237 208.719965 
L 312.13135 207.829514 
L 313.224463 207.658959 
L 314.317576 207.305682 
L 315.410689 206.561735 
L 316.503802 205.970719 
L 318.690028 205.58637 
L 320.876253 205.907975 
L 323.062479 206.793142 
L 324.155592 206.555177 
L 325.248705 207.222511 
L 327.434931 207.508817 
L 328.528044 207.268498 
L 330.71427 207.093132 
L 331.807383 206.78756 
L 332.900496 207.224358 
L 333.993609 207.209257 
L 336.179835 207.921386 
L 338.366061 221.187787 
L 339.459174 222.838543 
L 340.552287 226.26691 
L 341.645399 232.771769 
L 342.738512 242.264666 
L 343.831625 249.542137 
L 344.924738 254.117869 
L 346.017851 262.364886 
L 347.110964 268.838823 
L 348.204077 271.777686 
L 350.390303 274.436813 
L 351.483416 276.366665 
L 352.576529 277.66593 
L 353.669642 277.490894 
L 355.855868 277.766022 
L 356.948981 278.081085 
L 358.042094 277.027323 
L 359.135207 276.490064 
L 360.22832 276.637569 
L 361.321433 276.953103 
L 363.507658 279.062042 
L 364.600771 280.626222 
L 367.88011 282.95751 
L 370.066336 283.642035 
L 371.159449 283.632534 
L 372.252562 283.276091 
L 374.438788 281.723556 
L 375.531901 279.984117 
L 377.718127 274.810058 
L 378.81124 270.75084 
L 380.997466 258.122842 
L 382.090579 253.258516 
L 383.183691 246.636682 
L 385.369917 229.353406 
L 386.46303 225.269389 
L 388.649256 215.963544 
L 389.742369 212.644028 
L 390.835482 208.937892 
L 393.021708 212.927113 
L 394.114821 211.501927 
L 395.207934 210.759892 
L 397.39416 216.107046 
L 398.487273 213.33793 
L 398.487273 213.33793 
" style="fill:none;stroke:#2ca02c;stroke-linecap:square;stroke-width:1.5;"/>
   </g>
   <g id="line2d_16">
    <path clip-path="url(#p02059b3f7b)" d="M 73.832727 211.972248 
L 81.484518 212.49777 
L 82.577631 212.751112 
L 83.670744 212.534054 
L 84.763857 209.323716 
L 85.85697 199.575816 
L 86.950083 176.447609 
L 88.043196 149.836406 
L 89.136309 128.473735 
L 90.229421 114.129886 
L 91.322534 108.786613 
L 92.415647 96.728193 
L 93.50876 80.258355 
L 94.601873 76.896861 
L 95.694986 75.788187 
L 96.788099 72.294564 
L 97.881212 71.263283 
L 98.974325 73.370978 
L 100.067438 80.175528 
L 101.160551 85.364893 
L 102.253664 86.276628 
L 103.346777 93.185322 
L 104.43989 101.302612 
L 105.533003 108.366273 
L 106.626116 116.763463 
L 107.719229 123.95919 
L 108.812342 142.291246 
L 109.905455 151.694099 
L 110.998567 141.528074 
L 112.09168 139.780315 
L 113.184793 145.137331 
L 114.277906 148.723163 
L 115.371019 148.165219 
L 116.464132 154.074978 
L 117.557245 171.543368 
L 120.836584 203.17256 
L 121.929697 205.136664 
L 123.02281 206.018334 
L 125.209036 210.311404 
L 126.302149 211.161216 
L 127.395262 211.193218 
L 128.488375 211.625816 
L 129.581488 211.772461 
L 130.674601 212.127584 
L 131.767713 212.009666 
L 132.860826 212.019179 
L 135.047052 212.350663 
L 136.140165 212.394665 
L 137.233278 212.054293 
L 138.326391 212.000839 
L 139.419504 212.19577 
L 140.512617 212.266769 
L 141.60573 212.164993 
L 143.791956 212.382857 
L 144.885069 212.37277 
L 145.978182 212.482004 
L 147.071295 212.716408 
L 149.257521 211.957447 
L 150.350634 211.716122 
L 151.443747 211.13321 
L 152.53686 209.319185 
L 153.629972 208.238545 
L 154.723085 206.94509 
L 155.816198 205.06027 
L 156.909311 196.609899 
L 158.002424 191.446295 
L 159.095537 187.431927 
L 160.18865 185.790343 
L 161.281763 184.992192 
L 162.374876 174.364998 
L 163.467989 144.380447 
L 164.561102 120.620745 
L 165.654215 107.370746 
L 166.747328 97.440129 
L 167.840441 89.030674 
L 168.933554 83.281351 
L 170.026667 85.855866 
L 171.11978 90.440184 
L 172.212893 87.668317 
L 173.306006 87.468054 
L 174.399118 90.411018 
L 175.492231 98.721282 
L 177.678457 117.73826 
L 179.864683 144.434115 
L 180.957796 155.161956 
L 182.050909 161.809557 
L 183.144022 166.182848 
L 185.330248 179.717752 
L 187.516474 179.196362 
L 188.609587 180.462376 
L 189.7027 183.285941 
L 190.795813 185.378386 
L 191.888926 186.690773 
L 192.982039 191.124482 
L 194.075152 191.969501 
L 195.168264 194.514283 
L 196.261377 198.341674 
L 197.35449 199.831264 
L 198.447603 204.048655 
L 199.540716 205.901982 
L 200.633829 207.269798 
L 201.726942 207.542964 
L 202.820055 207.678891 
L 205.006281 210.892376 
L 206.099394 211.439105 
L 207.192507 211.703262 
L 208.28562 211.619361 
L 210.471846 212.3137 
L 211.564959 212.360758 
L 213.751185 212.220181 
L 215.93741 211.95361 
L 217.030523 211.79705 
L 218.123636 212.197445 
L 220.309862 211.968509 
L 221.402975 212.036381 
L 222.496088 211.984775 
L 225.775427 212.370866 
L 226.86854 212.25914 
L 230.147879 212.654524 
L 231.240992 212.022727 
L 232.334105 212.229408 
L 233.427218 211.444093 
L 234.520331 209.71136 
L 235.613444 206.718304 
L 236.706556 203.251485 
L 237.799669 192.781068 
L 239.985895 162.995222 
L 241.079008 149.929444 
L 242.172121 139.272839 
L 243.265234 131.811849 
L 244.358347 128.454605 
L 245.45146 128.039295 
L 246.544573 126.685664 
L 247.637686 122.791674 
L 248.730799 123.919981 
L 249.823912 126.676793 
L 250.917025 127.114063 
L 252.010138 128.723663 
L 253.103251 130.606327 
L 254.196364 138.782062 
L 255.289477 145.649868 
L 256.38259 153.883212 
L 257.475702 159.538912 
L 259.661928 177.304729 
L 260.755041 179.023283 
L 261.848154 183.91138 
L 264.03438 195.440163 
L 265.127493 195.858443 
L 266.220606 198.9773 
L 267.313719 204.619229 
L 268.406832 206.736459 
L 269.499945 207.687009 
L 270.593058 207.725619 
L 272.779284 208.168606 
L 273.872397 207.297852 
L 274.96551 206.650592 
L 276.058623 206.38591 
L 277.151736 206.829311 
L 279.337961 208.904322 
L 280.431074 210.461058 
L 282.6173 211.70937 
L 283.710413 211.651086 
L 286.989752 212.038674 
L 288.082865 212.3202 
L 289.175978 212.419945 
L 290.269091 211.864299 
L 291.362204 211.86704 
L 292.455317 212.010648 
L 293.54843 212.284713 
L 294.641543 212.254647 
L 295.734656 212.380594 
L 296.827769 212.269143 
L 297.920882 212.508061 
L 300.107107 212.669514 
L 302.293333 212.155108 
L 304.479559 206.580158 
L 305.572672 199.417518 
L 306.665785 183.119209 
L 307.758898 175.007066 
L 308.852011 170.441299 
L 309.945124 156.914617 
L 311.038237 127.010997 
L 312.13135 108.962993 
L 313.224463 98.555974 
L 314.317576 85.405245 
L 315.410689 77.202233 
L 316.503802 75.356802 
L 317.596915 75.712399 
L 318.690028 78.028761 
L 319.78314 82.944236 
L 320.876253 89.588855 
L 321.969366 98.1484 
L 324.155592 110.092163 
L 325.248705 119.975517 
L 326.341818 120.560192 
L 327.434931 118.693178 
L 328.528044 115.975554 
L 329.621157 116.030663 
L 330.71427 117.460796 
L 331.807383 125.578604 
L 333.993609 154.55521 
L 335.086722 172.980154 
L 337.272948 197.975605 
L 338.366061 203.860859 
L 339.459174 204.325012 
L 340.552287 205.179023 
L 341.645399 206.733342 
L 342.738512 209.197923 
L 343.831625 211.018741 
L 346.017851 211.511985 
L 347.110964 211.972535 
L 348.204077 212.29523 
L 349.29719 212.363394 
L 351.483416 212.066741 
L 353.669642 212.199688 
L 356.948981 212.166618 
L 358.042094 212.3568 
L 359.135207 212.221242 
L 361.321433 212.147942 
L 363.507658 211.956382 
L 364.600771 211.937618 
L 365.693884 212.189284 
L 366.786997 212.170248 
L 367.88011 211.965185 
L 370.066336 212.046983 
L 373.345675 212.097915 
L 374.438788 212.357476 
L 375.531901 212.295944 
L 378.81124 212.688388 
L 379.904353 212.090212 
L 380.997466 212.050564 
L 382.090579 211.889534 
L 383.183691 210.668575 
L 384.276804 208.502596 
L 385.369917 206.076978 
L 386.46303 205.064197 
L 387.556143 203.8456 
L 388.649256 200.223294 
L 390.835482 189.559307 
L 393.021708 196.227119 
L 394.114821 194.259656 
L 395.207934 192.76438 
L 396.301047 197.300542 
L 397.39416 200.245779 
L 398.487273 196.54573 
L 398.487273 196.54573 
" style="fill:none;stroke:#d62728;stroke-linecap:square;stroke-width:1.5;"/>
   </g>
   <g id="patch_3">
    <path d="M 57.6 307.584 
L 57.6 41.472 
" style="fill:none;stroke:#000000;stroke-linecap:square;stroke-linejoin:miter;stroke-width:0.8;"/>
   </g>
   <g id="patch_4">
    <path d="M 414.72 307.584 
L 414.72 41.472 
" style="fill:none;stroke:#000000;stroke-linecap:square;stroke-linejoin:miter;stroke-width:0.8;"/>
   </g>
   <g id="patch_5">
    <path d="M 57.6 307.584 
L 414.72 307.584 
" style="fill:none;stroke:#000000;stroke-linecap:square;stroke-linejoin:miter;stroke-width:0.8;"/>
   </g>
   <g id="patch_6">
    <path d="M 57.6 41.472 
L 414.72 41.472 
" style="fill:none;stroke:#000000;stroke-linecap:square;stroke-linejoin:miter;stroke-width:0.8;"/>
   </g>
   <g id="text_13">
    <!-- Plot of Train Data vs MCMC Uncertainty  -->
    <defs>
     <path d="M 19.671875 64.796875 
L 19.671875 37.40625 
L 32.078125 37.40625 
Q 38.96875 37.40625 42.71875 40.96875 
Q 46.484375 44.53125 46.484375 51.125 
Q 46.484375 57.671875 42.71875 61.234375 
Q 38.96875 64.796875 32.078125 64.796875 
z
M 9.8125 72.90625 
L 32.078125 72.90625 
Q 44.34375 72.90625 50.609375 67.359375 
Q 56.890625 61.8125 56.890625 51.125 
Q 56.890625 40.328125 50.609375 34.8125 
Q 44.34375 29.296875 32.078125 29.296875 
L 19.671875 29.296875 
L 19.671875 0 
L 9.8125 0 
z
" id="DejaVuSans-50"/>
     <path d="M 9.421875 75.984375 
L 18.40625 75.984375 
L 18.40625 0 
L 9.421875 0 
z
" id="DejaVuSans-6c"/>
     <path d="M 30.609375 48.390625 
Q 23.390625 48.390625 19.1875 42.75 
Q 14.984375 37.109375 14.984375 27.296875 
Q 14.984375 17.484375 19.15625 11.84375 
Q 23.34375 6.203125 30.609375 6.203125 
Q 37.796875 6.203125 41.984375 11.859375 
Q 46.1875 17.53125 46.1875 27.296875 
Q 46.1875 37.015625 41.984375 42.703125 
Q 37.796875 48.390625 30.609375 48.390625 
z
M 30.609375 56 
Q 42.328125 56 49.015625 48.375 
Q 55.71875 40.765625 55.71875 27.296875 
Q 55.71875 13.875 49.015625 6.21875 
Q 42.328125 -1.421875 30.609375 -1.421875 
Q 18.84375 -1.421875 12.171875 6.21875 
Q 5.515625 13.875 5.515625 27.296875 
Q 5.515625 40.765625 12.171875 48.375 
Q 18.84375 56 30.609375 56 
z
" id="DejaVuSans-6f"/>
     <path d="M 18.3125 70.21875 
L 18.3125 54.6875 
L 36.8125 54.6875 
L 36.8125 47.703125 
L 18.3125 47.703125 
L 18.3125 18.015625 
Q 18.3125 11.328125 20.140625 9.421875 
Q 21.96875 7.515625 27.59375 7.515625 
L 36.8125 7.515625 
L 36.8125 0 
L 27.59375 0 
Q 17.1875 0 13.234375 3.875 
Q 9.28125 7.765625 9.28125 18.015625 
L 9.28125 47.703125 
L 2.6875 47.703125 
L 2.6875 54.6875 
L 9.28125 54.6875 
L 9.28125 70.21875 
z
" id="DejaVuSans-74"/>
     <path id="DejaVuSans-20"/>
     <path d="M 37.109375 75.984375 
L 37.109375 68.5 
L 28.515625 68.5 
Q 23.6875 68.5 21.796875 66.546875 
Q 19.921875 64.59375 19.921875 59.515625 
L 19.921875 54.6875 
L 34.71875 54.6875 
L 34.71875 47.703125 
L 19.921875 47.703125 
L 19.921875 0 
L 10.890625 0 
L 10.890625 47.703125 
L 2.296875 47.703125 
L 2.296875 54.6875 
L 10.890625 54.6875 
L 10.890625 58.5 
Q 10.890625 67.625 15.140625 71.796875 
Q 19.390625 75.984375 28.609375 75.984375 
z
" id="DejaVuSans-66"/>
     <path d="M -0.296875 72.90625 
L 61.375 72.90625 
L 61.375 64.59375 
L 35.5 64.59375 
L 35.5 0 
L 25.59375 0 
L 25.59375 64.59375 
L -0.296875 64.59375 
z
" id="DejaVuSans-54"/>
     <path d="M 41.109375 46.296875 
Q 39.59375 47.171875 37.8125 47.578125 
Q 36.03125 48 33.890625 48 
Q 26.265625 48 22.1875 43.046875 
Q 18.109375 38.09375 18.109375 28.8125 
L 18.109375 0 
L 9.078125 0 
L 9.078125 54.6875 
L 18.109375 54.6875 
L 18.109375 46.1875 
Q 20.953125 51.171875 25.484375 53.578125 
Q 30.03125 56 36.53125 56 
Q 37.453125 56 38.578125 55.875 
Q 39.703125 55.765625 41.0625 55.515625 
z
" id="DejaVuSans-72"/>
     <path d="M 34.28125 27.484375 
Q 23.390625 27.484375 19.1875 25 
Q 14.984375 22.515625 14.984375 16.5 
Q 14.984375 11.71875 18.140625 8.90625 
Q 21.296875 6.109375 26.703125 6.109375 
Q 34.1875 6.109375 38.703125 11.40625 
Q 43.21875 16.703125 43.21875 25.484375 
L 43.21875 27.484375 
z
M 52.203125 31.203125 
L 52.203125 0 
L 43.21875 0 
L 43.21875 8.296875 
Q 40.140625 3.328125 35.546875 0.953125 
Q 30.953125 -1.421875 24.3125 -1.421875 
Q 15.921875 -1.421875 10.953125 3.296875 
Q 6 8.015625 6 15.921875 
Q 6 25.140625 12.171875 29.828125 
Q 18.359375 34.515625 30.609375 34.515625 
L 43.21875 34.515625 
L 43.21875 35.40625 
Q 43.21875 41.609375 39.140625 45 
Q 35.0625 48.390625 27.6875 48.390625 
Q 23 48.390625 18.546875 47.265625 
Q 14.109375 46.140625 10.015625 43.890625 
L 10.015625 52.203125 
Q 14.9375 54.109375 19.578125 55.046875 
Q 24.21875 56 28.609375 56 
Q 40.484375 56 46.34375 49.84375 
Q 52.203125 43.703125 52.203125 31.203125 
z
" id="DejaVuSans-61"/>
     <path d="M 9.421875 54.6875 
L 18.40625 54.6875 
L 18.40625 0 
L 9.421875 0 
z
M 9.421875 75.984375 
L 18.40625 75.984375 
L 18.40625 64.59375 
L 9.421875 64.59375 
z
" id="DejaVuSans-69"/>
     <path d="M 54.890625 33.015625 
L 54.890625 0 
L 45.90625 0 
L 45.90625 32.71875 
Q 45.90625 40.484375 42.875 44.328125 
Q 39.84375 48.1875 33.796875 48.1875 
Q 26.515625 48.1875 22.3125 43.546875 
Q 18.109375 38.921875 18.109375 30.90625 
L 18.109375 0 
L 9.078125 0 
L 9.078125 54.6875 
L 18.109375 54.6875 
L 18.109375 46.1875 
Q 21.34375 51.125 25.703125 53.5625 
Q 30.078125 56 35.796875 56 
Q 45.21875 56 50.046875 50.171875 
Q 54.890625 44.34375 54.890625 33.015625 
z
" id="DejaVuSans-6e"/>
     <path d="M 19.671875 64.796875 
L 19.671875 8.109375 
L 31.59375 8.109375 
Q 46.6875 8.109375 53.6875 14.9375 
Q 60.6875 21.78125 60.6875 36.53125 
Q 60.6875 51.171875 53.6875 57.984375 
Q 46.6875 64.796875 31.59375 64.796875 
z
M 9.8125 72.90625 
L 30.078125 72.90625 
Q 51.265625 72.90625 61.171875 64.09375 
Q 71.09375 55.28125 71.09375 36.53125 
Q 71.09375 17.671875 61.125 8.828125 
Q 51.171875 0 30.078125 0 
L 9.8125 0 
z
" id="DejaVuSans-44"/>
     <path d="M 2.984375 54.6875 
L 12.5 54.6875 
L 29.59375 8.796875 
L 46.6875 54.6875 
L 56.203125 54.6875 
L 35.6875 0 
L 23.484375 0 
z
" id="DejaVuSans-76"/>
     <path d="M 44.28125 53.078125 
L 44.28125 44.578125 
Q 40.484375 46.53125 36.375 47.5 
Q 32.28125 48.484375 27.875 48.484375 
Q 21.1875 48.484375 17.84375 46.4375 
Q 14.5 44.390625 14.5 40.28125 
Q 14.5 37.15625 16.890625 35.375 
Q 19.28125 33.59375 26.515625 31.984375 
L 29.59375 31.296875 
Q 39.15625 29.25 43.1875 25.515625 
Q 47.21875 21.78125 47.21875 15.09375 
Q 47.21875 7.46875 41.1875 3.015625 
Q 35.15625 -1.421875 24.609375 -1.421875 
Q 20.21875 -1.421875 15.453125 -0.5625 
Q 10.6875 0.296875 5.421875 2 
L 5.421875 11.28125 
Q 10.40625 8.6875 15.234375 7.390625 
Q 20.0625 6.109375 24.8125 6.109375 
Q 31.15625 6.109375 34.5625 8.28125 
Q 37.984375 10.453125 37.984375 14.40625 
Q 37.984375 18.0625 35.515625 20.015625 
Q 33.0625 21.96875 24.703125 23.78125 
L 21.578125 24.515625 
Q 13.234375 26.265625 9.515625 29.90625 
Q 5.8125 33.546875 5.8125 39.890625 
Q 5.8125 47.609375 11.28125 51.796875 
Q 16.75 56 26.8125 56 
Q 31.78125 56 36.171875 55.265625 
Q 40.578125 54.546875 44.28125 53.078125 
z
" id="DejaVuSans-73"/>
     <path d="M 9.8125 72.90625 
L 24.515625 72.90625 
L 43.109375 23.296875 
L 61.8125 72.90625 
L 76.515625 72.90625 
L 76.515625 0 
L 66.890625 0 
L 66.890625 64.015625 
L 48.09375 14.015625 
L 38.1875 14.015625 
L 19.390625 64.015625 
L 19.390625 0 
L 9.8125 0 
z
" id="DejaVuSans-4d"/>
     <path d="M 64.40625 67.28125 
L 64.40625 56.890625 
Q 59.421875 61.53125 53.78125 63.8125 
Q 48.140625 66.109375 41.796875 66.109375 
Q 29.296875 66.109375 22.65625 58.46875 
Q 16.015625 50.828125 16.015625 36.375 
Q 16.015625 21.96875 22.65625 14.328125 
Q 29.296875 6.6875 41.796875 6.6875 
Q 48.140625 6.6875 53.78125 8.984375 
Q 59.421875 11.28125 64.40625 15.921875 
L 64.40625 5.609375 
Q 59.234375 2.09375 53.4375 0.328125 
Q 47.65625 -1.421875 41.21875 -1.421875 
Q 24.65625 -1.421875 15.125 8.703125 
Q 5.609375 18.84375 5.609375 36.375 
Q 5.609375 53.953125 15.125 64.078125 
Q 24.65625 74.21875 41.21875 74.21875 
Q 47.75 74.21875 53.53125 72.484375 
Q 59.328125 70.75 64.40625 67.28125 
z
" id="DejaVuSans-43"/>
     <path d="M 8.6875 72.90625 
L 18.609375 72.90625 
L 18.609375 28.609375 
Q 18.609375 16.890625 22.84375 11.734375 
Q 27.09375 6.59375 36.625 6.59375 
Q 46.09375 6.59375 50.34375 11.734375 
Q 54.59375 16.890625 54.59375 28.609375 
L 54.59375 72.90625 
L 64.5 72.90625 
L 64.5 27.390625 
Q 64.5 13.140625 57.4375 5.859375 
Q 50.390625 -1.421875 36.625 -1.421875 
Q 22.796875 -1.421875 15.734375 5.859375 
Q 8.6875 13.140625 8.6875 27.390625 
z
" id="DejaVuSans-55"/>
     <path d="M 48.78125 52.59375 
L 48.78125 44.1875 
Q 44.96875 46.296875 41.140625 47.34375 
Q 37.3125 48.390625 33.40625 48.390625 
Q 24.65625 48.390625 19.8125 42.84375 
Q 14.984375 37.3125 14.984375 27.296875 
Q 14.984375 17.28125 19.8125 11.734375 
Q 24.65625 6.203125 33.40625 6.203125 
Q 37.3125 6.203125 41.140625 7.25 
Q 44.96875 8.296875 48.78125 10.40625 
L 48.78125 2.09375 
Q 45.015625 0.34375 40.984375 -0.53125 
Q 36.96875 -1.421875 32.421875 -1.421875 
Q 20.0625 -1.421875 12.78125 6.34375 
Q 5.515625 14.109375 5.515625 27.296875 
Q 5.515625 40.671875 12.859375 48.328125 
Q 20.21875 56 33.015625 56 
Q 37.15625 56 41.109375 55.140625 
Q 45.0625 54.296875 48.78125 52.59375 
z
" id="DejaVuSans-63"/>
     <path d="M 56.203125 29.59375 
L 56.203125 25.203125 
L 14.890625 25.203125 
Q 15.484375 15.921875 20.484375 11.0625 
Q 25.484375 6.203125 34.421875 6.203125 
Q 39.59375 6.203125 44.453125 7.46875 
Q 49.3125 8.734375 54.109375 11.28125 
L 54.109375 2.78125 
Q 49.265625 0.734375 44.1875 -0.34375 
Q 39.109375 -1.421875 33.890625 -1.421875 
Q 20.796875 -1.421875 13.15625 6.1875 
Q 5.515625 13.8125 5.515625 26.8125 
Q 5.515625 40.234375 12.765625 48.109375 
Q 20.015625 56 32.328125 56 
Q 43.359375 56 49.78125 48.890625 
Q 56.203125 41.796875 56.203125 29.59375 
z
M 47.21875 32.234375 
Q 47.125 39.59375 43.09375 43.984375 
Q 39.0625 48.390625 32.421875 48.390625 
Q 24.90625 48.390625 20.390625 44.140625 
Q 15.875 39.890625 15.1875 32.171875 
z
" id="DejaVuSans-65"/>
     <path d="M 32.171875 -5.078125 
Q 28.375 -14.84375 24.75 -17.8125 
Q 21.140625 -20.796875 15.09375 -20.796875 
L 7.90625 -20.796875 
L 7.90625 -13.28125 
L 13.1875 -13.28125 
Q 16.890625 -13.28125 18.9375 -11.515625 
Q 21 -9.765625 23.484375 -3.21875 
L 25.09375 0.875 
L 2.984375 54.6875 
L 12.5 54.6875 
L 29.59375 11.921875 
L 46.6875 54.6875 
L 56.203125 54.6875 
z
" id="DejaVuSans-79"/>
    </defs>
    <g transform="translate(115.666875 35.472)scale(0.12 -0.12)">
     <use xlink:href="#DejaVuSans-50"/>
     <use x="60.302734" xlink:href="#DejaVuSans-6c"/>
     <use x="88.085938" xlink:href="#DejaVuSans-6f"/>
     <use x="149.267578" xlink:href="#DejaVuSans-74"/>
     <use x="188.476562" xlink:href="#DejaVuSans-20"/>
     <use x="220.263672" xlink:href="#DejaVuSans-6f"/>
     <use x="281.445312" xlink:href="#DejaVuSans-66"/>
     <use x="316.650391" xlink:href="#DejaVuSans-20"/>
     <use x="348.4375" xlink:href="#DejaVuSans-54"/>
     <use x="409.302734" xlink:href="#DejaVuSans-72"/>
     <use x="450.416016" xlink:href="#DejaVuSans-61"/>
     <use x="511.695312" xlink:href="#DejaVuSans-69"/>
     <use x="539.478516" xlink:href="#DejaVuSans-6e"/>
     <use x="602.857422" xlink:href="#DejaVuSans-20"/>
     <use x="634.644531" xlink:href="#DejaVuSans-44"/>
     <use x="711.646484" xlink:href="#DejaVuSans-61"/>
     <use x="772.925781" xlink:href="#DejaVuSans-74"/>
     <use x="812.134766" xlink:href="#DejaVuSans-61"/>
     <use x="873.414062" xlink:href="#DejaVuSans-20"/>
     <use x="905.201172" xlink:href="#DejaVuSans-76"/>
     <use x="964.380859" xlink:href="#DejaVuSans-73"/>
     <use x="1016.480469" xlink:href="#DejaVuSans-20"/>
     <use x="1048.267578" xlink:href="#DejaVuSans-4d"/>
     <use x="1134.546875" xlink:href="#DejaVuSans-43"/>
     <use x="1204.371094" xlink:href="#DejaVuSans-4d"/>
     <use x="1290.650391" xlink:href="#DejaVuSans-43"/>
     <use x="1360.474609" xlink:href="#DejaVuSans-20"/>
     <use x="1392.261719" xlink:href="#DejaVuSans-55"/>
     <use x="1465.455078" xlink:href="#DejaVuSans-6e"/>
     <use x="1528.833984" xlink:href="#DejaVuSans-63"/>
     <use x="1583.814453" xlink:href="#DejaVuSans-65"/>
     <use x="1645.337891" xlink:href="#DejaVuSans-72"/>
     <use x="1686.451172" xlink:href="#DejaVuSans-74"/>
     <use x="1725.660156" xlink:href="#DejaVuSans-61"/>
     <use x="1786.939453" xlink:href="#DejaVuSans-69"/>
     <use x="1814.722656" xlink:href="#DejaVuSans-6e"/>
     <use x="1878.101562" xlink:href="#DejaVuSans-74"/>
     <use x="1917.310547" xlink:href="#DejaVuSans-79"/>
     <use x="1976.490234" xlink:href="#DejaVuSans-20"/>
    </g>
   </g>
   <g id="legend_1">
    <g id="patch_7">
     <path d="M 277.843437 108.1845 
L 407.72 108.1845 
Q 409.72 108.1845 409.72 106.1845 
L 409.72 48.472 
Q 409.72 46.472 407.72 46.472 
L 277.843437 46.472 
Q 275.843437 46.472 275.843437 48.472 
L 275.843437 106.1845 
Q 275.843437 108.1845 277.843437 108.1845 
z
" style="fill:#ffffff;opacity:0.8;stroke:#cccccc;stroke-linejoin:miter;"/>
    </g>
    <g id="line2d_17">
     <path d="M 279.843437 54.570438 
L 299.843437 54.570438 
" style="fill:none;stroke:#1f77b4;stroke-linecap:square;stroke-width:1.5;"/>
    </g>
    <g id="line2d_18"/>
    <g id="text_14">
     <!-- actual -->
     <defs>
      <path d="M 8.5 21.578125 
L 8.5 54.6875 
L 17.484375 54.6875 
L 17.484375 21.921875 
Q 17.484375 14.15625 20.5 10.265625 
Q 23.53125 6.390625 29.59375 6.390625 
Q 36.859375 6.390625 41.078125 11.03125 
Q 45.3125 15.671875 45.3125 23.6875 
L 45.3125 54.6875 
L 54.296875 54.6875 
L 54.296875 0 
L 45.3125 0 
L 45.3125 8.40625 
Q 42.046875 3.421875 37.71875 1 
Q 33.40625 -1.421875 27.6875 -1.421875 
Q 18.265625 -1.421875 13.375 4.4375 
Q 8.5 10.296875 8.5 21.578125 
z
M 31.109375 56 
z
" id="DejaVuSans-75"/>
     </defs>
     <g transform="translate(307.843437 58.070438)scale(0.1 -0.1)">
      <use xlink:href="#DejaVuSans-61"/>
      <use x="61.279297" xlink:href="#DejaVuSans-63"/>
      <use x="116.259766" xlink:href="#DejaVuSans-74"/>
      <use x="155.46875" xlink:href="#DejaVuSans-75"/>
      <use x="218.847656" xlink:href="#DejaVuSans-61"/>
      <use x="280.126953" xlink:href="#DejaVuSans-6c"/>
     </g>
    </g>
    <g id="line2d_19">
     <path d="M 279.843437 69.248563 
L 299.843437 69.248563 
" style="fill:none;stroke:#ff7f0e;stroke-linecap:square;stroke-width:1.5;"/>
    </g>
    <g id="line2d_20"/>
    <g id="text_15">
     <!-- pred. (mean) -->
     <defs>
      <path d="M 18.109375 8.203125 
L 18.109375 -20.796875 
L 9.078125 -20.796875 
L 9.078125 54.6875 
L 18.109375 54.6875 
L 18.109375 46.390625 
Q 20.953125 51.265625 25.265625 53.625 
Q 29.59375 56 35.59375 56 
Q 45.5625 56 51.78125 48.09375 
Q 58.015625 40.1875 58.015625 27.296875 
Q 58.015625 14.40625 51.78125 6.484375 
Q 45.5625 -1.421875 35.59375 -1.421875 
Q 29.59375 -1.421875 25.265625 0.953125 
Q 20.953125 3.328125 18.109375 8.203125 
z
M 48.6875 27.296875 
Q 48.6875 37.203125 44.609375 42.84375 
Q 40.53125 48.484375 33.40625 48.484375 
Q 26.265625 48.484375 22.1875 42.84375 
Q 18.109375 37.203125 18.109375 27.296875 
Q 18.109375 17.390625 22.1875 11.75 
Q 26.265625 6.109375 33.40625 6.109375 
Q 40.53125 6.109375 44.609375 11.75 
Q 48.6875 17.390625 48.6875 27.296875 
z
" id="DejaVuSans-70"/>
      <path d="M 45.40625 46.390625 
L 45.40625 75.984375 
L 54.390625 75.984375 
L 54.390625 0 
L 45.40625 0 
L 45.40625 8.203125 
Q 42.578125 3.328125 38.25 0.953125 
Q 33.9375 -1.421875 27.875 -1.421875 
Q 17.96875 -1.421875 11.734375 6.484375 
Q 5.515625 14.40625 5.515625 27.296875 
Q 5.515625 40.1875 11.734375 48.09375 
Q 17.96875 56 27.875 56 
Q 33.9375 56 38.25 53.625 
Q 42.578125 51.265625 45.40625 46.390625 
z
M 14.796875 27.296875 
Q 14.796875 17.390625 18.875 11.75 
Q 22.953125 6.109375 30.078125 6.109375 
Q 37.203125 6.109375 41.296875 11.75 
Q 45.40625 17.390625 45.40625 27.296875 
Q 45.40625 37.203125 41.296875 42.84375 
Q 37.203125 48.484375 30.078125 48.484375 
Q 22.953125 48.484375 18.875 42.84375 
Q 14.796875 37.203125 14.796875 27.296875 
z
" id="DejaVuSans-64"/>
      <path d="M 31 75.875 
Q 24.46875 64.65625 21.28125 53.65625 
Q 18.109375 42.671875 18.109375 31.390625 
Q 18.109375 20.125 21.3125 9.0625 
Q 24.515625 -2 31 -13.1875 
L 23.1875 -13.1875 
Q 15.875 -1.703125 12.234375 9.375 
Q 8.59375 20.453125 8.59375 31.390625 
Q 8.59375 42.28125 12.203125 53.3125 
Q 15.828125 64.359375 23.1875 75.875 
z
" id="DejaVuSans-28"/>
      <path d="M 52 44.1875 
Q 55.375 50.25 60.0625 53.125 
Q 64.75 56 71.09375 56 
Q 79.640625 56 84.28125 50.015625 
Q 88.921875 44.046875 88.921875 33.015625 
L 88.921875 0 
L 79.890625 0 
L 79.890625 32.71875 
Q 79.890625 40.578125 77.09375 44.375 
Q 74.3125 48.1875 68.609375 48.1875 
Q 61.625 48.1875 57.5625 43.546875 
Q 53.515625 38.921875 53.515625 30.90625 
L 53.515625 0 
L 44.484375 0 
L 44.484375 32.71875 
Q 44.484375 40.625 41.703125 44.40625 
Q 38.921875 48.1875 33.109375 48.1875 
Q 26.21875 48.1875 22.15625 43.53125 
Q 18.109375 38.875 18.109375 30.90625 
L 18.109375 0 
L 9.078125 0 
L 9.078125 54.6875 
L 18.109375 54.6875 
L 18.109375 46.1875 
Q 21.1875 51.21875 25.484375 53.609375 
Q 29.78125 56 35.6875 56 
Q 41.65625 56 45.828125 52.96875 
Q 50 49.953125 52 44.1875 
z
" id="DejaVuSans-6d"/>
      <path d="M 8.015625 75.875 
L 15.828125 75.875 
Q 23.140625 64.359375 26.78125 53.3125 
Q 30.421875 42.28125 30.421875 31.390625 
Q 30.421875 20.453125 26.78125 9.375 
Q 23.140625 -1.703125 15.828125 -13.1875 
L 8.015625 -13.1875 
Q 14.5 -2 17.703125 9.0625 
Q 20.90625 20.125 20.90625 31.390625 
Q 20.90625 42.671875 17.703125 53.65625 
Q 14.5 64.65625 8.015625 75.875 
z
" id="DejaVuSans-29"/>
     </defs>
     <g transform="translate(307.843437 72.748563)scale(0.1 -0.1)">
      <use xlink:href="#DejaVuSans-70"/>
      <use x="63.476562" xlink:href="#DejaVuSans-72"/>
      <use x="104.558594" xlink:href="#DejaVuSans-65"/>
      <use x="166.082031" xlink:href="#DejaVuSans-64"/>
      <use x="229.558594" xlink:href="#DejaVuSans-2e"/>
      <use x="261.345703" xlink:href="#DejaVuSans-20"/>
      <use x="293.132812" xlink:href="#DejaVuSans-28"/>
      <use x="332.146484" xlink:href="#DejaVuSans-6d"/>
      <use x="429.558594" xlink:href="#DejaVuSans-65"/>
      <use x="491.082031" xlink:href="#DejaVuSans-61"/>
      <use x="552.361328" xlink:href="#DejaVuSans-6e"/>
      <use x="615.740234" xlink:href="#DejaVuSans-29"/>
     </g>
    </g>
    <g id="line2d_21">
     <path d="M 279.843437 83.926688 
L 299.843437 83.926688 
" style="fill:none;stroke:#2ca02c;stroke-linecap:square;stroke-width:1.5;"/>
    </g>
    <g id="line2d_22"/>
    <g id="text_16">
     <!-- pred.(5th percen.) -->
     <defs>
      <path d="M 10.796875 72.90625 
L 49.515625 72.90625 
L 49.515625 64.59375 
L 19.828125 64.59375 
L 19.828125 46.734375 
Q 21.96875 47.46875 24.109375 47.828125 
Q 26.265625 48.1875 28.421875 48.1875 
Q 40.625 48.1875 47.75 41.5 
Q 54.890625 34.8125 54.890625 23.390625 
Q 54.890625 11.625 47.5625 5.09375 
Q 40.234375 -1.421875 26.90625 -1.421875 
Q 22.3125 -1.421875 17.546875 -0.640625 
Q 12.796875 0.140625 7.71875 1.703125 
L 7.71875 11.625 
Q 12.109375 9.234375 16.796875 8.0625 
Q 21.484375 6.890625 26.703125 6.890625 
Q 35.15625 6.890625 40.078125 11.328125 
Q 45.015625 15.765625 45.015625 23.390625 
Q 45.015625 31 40.078125 35.4375 
Q 35.15625 39.890625 26.703125 39.890625 
Q 22.75 39.890625 18.8125 39.015625 
Q 14.890625 38.140625 10.796875 36.28125 
z
" id="DejaVuSans-35"/>
      <path d="M 54.890625 33.015625 
L 54.890625 0 
L 45.90625 0 
L 45.90625 32.71875 
Q 45.90625 40.484375 42.875 44.328125 
Q 39.84375 48.1875 33.796875 48.1875 
Q 26.515625 48.1875 22.3125 43.546875 
Q 18.109375 38.921875 18.109375 30.90625 
L 18.109375 0 
L 9.078125 0 
L 9.078125 75.984375 
L 18.109375 75.984375 
L 18.109375 46.1875 
Q 21.34375 51.125 25.703125 53.5625 
Q 30.078125 56 35.796875 56 
Q 45.21875 56 50.046875 50.171875 
Q 54.890625 44.34375 54.890625 33.015625 
z
" id="DejaVuSans-68"/>
     </defs>
     <g transform="translate(307.843437 87.426688)scale(0.1 -0.1)">
      <use xlink:href="#DejaVuSans-70"/>
      <use x="63.476562" xlink:href="#DejaVuSans-72"/>
      <use x="104.558594" xlink:href="#DejaVuSans-65"/>
      <use x="166.082031" xlink:href="#DejaVuSans-64"/>
      <use x="229.558594" xlink:href="#DejaVuSans-2e"/>
      <use x="261.345703" xlink:href="#DejaVuSans-28"/>
      <use x="300.359375" xlink:href="#DejaVuSans-35"/>
      <use x="363.982422" xlink:href="#DejaVuSans-74"/>
      <use x="403.191406" xlink:href="#DejaVuSans-68"/>
      <use x="466.570312" xlink:href="#DejaVuSans-20"/>
      <use x="498.357422" xlink:href="#DejaVuSans-70"/>
      <use x="561.833984" xlink:href="#DejaVuSans-65"/>
      <use x="623.357422" xlink:href="#DejaVuSans-72"/>
      <use x="664.439453" xlink:href="#DejaVuSans-63"/>
      <use x="719.419922" xlink:href="#DejaVuSans-65"/>
      <use x="780.943359" xlink:href="#DejaVuSans-6e"/>
      <use x="844.322266" xlink:href="#DejaVuSans-2e"/>
      <use x="876.109375" xlink:href="#DejaVuSans-29"/>
     </g>
    </g>
    <g id="line2d_23">
     <path d="M 279.843437 98.604813 
L 299.843437 98.604813 
" style="fill:none;stroke:#d62728;stroke-linecap:square;stroke-width:1.5;"/>
    </g>
    <g id="line2d_24"/>
    <g id="text_17">
     <!-- pred.(95th percen.) -->
     <defs>
      <path d="M 10.984375 1.515625 
L 10.984375 10.5 
Q 14.703125 8.734375 18.5 7.8125 
Q 22.3125 6.890625 25.984375 6.890625 
Q 35.75 6.890625 40.890625 13.453125 
Q 46.046875 20.015625 46.78125 33.40625 
Q 43.953125 29.203125 39.59375 26.953125 
Q 35.25 24.703125 29.984375 24.703125 
Q 19.046875 24.703125 12.671875 31.3125 
Q 6.296875 37.9375 6.296875 49.421875 
Q 6.296875 60.640625 12.9375 67.421875 
Q 19.578125 74.21875 30.609375 74.21875 
Q 43.265625 74.21875 49.921875 64.515625 
Q 56.59375 54.828125 56.59375 36.375 
Q 56.59375 19.140625 48.40625 8.859375 
Q 40.234375 -1.421875 26.421875 -1.421875 
Q 22.703125 -1.421875 18.890625 -0.6875 
Q 15.09375 0.046875 10.984375 1.515625 
z
M 30.609375 32.421875 
Q 37.25 32.421875 41.125 36.953125 
Q 45.015625 41.5 45.015625 49.421875 
Q 45.015625 57.28125 41.125 61.84375 
Q 37.25 66.40625 30.609375 66.40625 
Q 23.96875 66.40625 20.09375 61.84375 
Q 16.21875 57.28125 16.21875 49.421875 
Q 16.21875 41.5 20.09375 36.953125 
Q 23.96875 32.421875 30.609375 32.421875 
z
" id="DejaVuSans-39"/>
     </defs>
     <g transform="translate(307.843437 102.104813)scale(0.1 -0.1)">
      <use xlink:href="#DejaVuSans-70"/>
      <use x="63.476562" xlink:href="#DejaVuSans-72"/>
      <use x="104.558594" xlink:href="#DejaVuSans-65"/>
      <use x="166.082031" xlink:href="#DejaVuSans-64"/>
      <use x="229.558594" xlink:href="#DejaVuSans-2e"/>
      <use x="261.345703" xlink:href="#DejaVuSans-28"/>
      <use x="300.359375" xlink:href="#DejaVuSans-39"/>
      <use x="363.982422" xlink:href="#DejaVuSans-35"/>
      <use x="427.605469" xlink:href="#DejaVuSans-74"/>
      <use x="466.814453" xlink:href="#DejaVuSans-68"/>
      <use x="530.193359" xlink:href="#DejaVuSans-20"/>
      <use x="561.980469" xlink:href="#DejaVuSans-70"/>
      <use x="625.457031" xlink:href="#DejaVuSans-65"/>
      <use x="686.980469" xlink:href="#DejaVuSans-72"/>
      <use x="728.0625" xlink:href="#DejaVuSans-63"/>
      <use x="783.042969" xlink:href="#DejaVuSans-65"/>
      <use x="844.566406" xlink:href="#DejaVuSans-6e"/>
      <use x="907.945312" xlink:href="#DejaVuSans-2e"/>
      <use x="939.732422" xlink:href="#DejaVuSans-29"/>
     </g>
    </g>
   </g>
  </g>
 </g>
 <defs>
  <clipPath id="p02059b3f7b">
   <rect height="266.112" width="357.12" x="57.6" y="41.472"/>
  </clipPath>
 </defs>
</svg>
