<?xml version="1.0" encoding="utf-8" standalone="no"?>
<!DOCTYPE svg PUBLIC "-//W3C//DTD SVG 1.1//EN"
  "http://www.w3.org/Graphics/SVG/1.1/DTD/svg11.dtd">
<!-- Created with matplotlib (http://matplotlib.org/) -->
<svg height="345pt" version="1.1" viewBox="0 0 460 345" width="460pt" xmlns="http://www.w3.org/2000/svg" xmlns:xlink="http://www.w3.org/1999/xlink">
 <defs>
  <style type="text/css">
*{stroke-linecap:butt;stroke-linejoin:round;}
  </style>
 </defs>
 <g id="figure_1">
  <g id="patch_1">
   <path d="M 0 345.6 
L 460.8 345.6 
L 460.8 0 
L 0 0 
z
" style="fill:#ffffff;"/>
  </g>
  <g id="axes_1">
   <g id="patch_2">
    <path d="M 57.6 307.584 
L 414.72 307.584 
L 414.72 41.472 
L 57.6 41.472 
z
" style="fill:#ffffff;"/>
   </g>
   <g id="PolyCollection_1">
    <path clip-path="url(#p653e037ffb)" d="M 73.832727 111.181604 
L 73.832727 159.074041 
L 75.48072 158.770292 
L 77.128713 158.227717 
L 78.776705 158.174123 
L 80.424698 158.199047 
L 82.07269 158.24939 
L 83.720683 162.507463 
L 85.368676 170.417583 
L 87.016668 172.764534 
L 88.664661 167.733297 
L 90.312653 170.552086 
L 91.960646 175.959268 
L 93.608639 185.613363 
L 95.256631 194.187072 
L 96.904624 206.911936 
L 98.552617 224.723129 
L 100.200609 235.646746 
L 101.848602 243.386241 
L 103.496594 249.029354 
L 105.144587 257.539088 
L 106.79258 262.607888 
L 108.440572 264.474275 
L 110.088565 265.19514 
L 111.736557 265.041632 
L 113.38455 264.365463 
L 115.032543 264.665611 
L 116.680535 266.278151 
L 118.328528 268.957786 
L 119.976521 270.254897 
L 121.624513 270.758821 
L 123.272506 272.004738 
L 124.920498 272.250655 
L 126.568491 272.583537 
L 128.216484 271.846408 
L 129.864476 271.11498 
L 131.512469 271.580926 
L 133.160461 271.811152 
L 134.808454 272.276932 
L 136.456447 272.374704 
L 138.104439 272.888838 
L 139.752432 272.333179 
L 141.400425 271.246763 
L 143.048417 269.940329 
L 144.69641 267.10543 
L 146.344402 261.387795 
L 147.992395 251.505041 
L 149.640388 241.47747 
L 151.28838 228.988082 
L 152.936373 212.218465 
L 154.584365 190.982729 
L 156.232358 172.455082 
L 157.880351 163.692493 
L 159.528343 158.884752 
L 161.176336 158.94657 
L 162.824329 158.555508 
L 164.472321 158.652868 
L 166.120314 158.559572 
L 167.768306 158.603164 
L 169.416299 158.442333 
L 171.064292 158.390391 
L 172.712284 158.289661 
L 174.360277 158.144515 
L 176.008269 158.316077 
L 177.656262 157.943703 
L 179.304255 158.166702 
L 180.952247 158.084344 
L 182.60024 158.242026 
L 184.248233 158.290993 
L 185.896225 157.683291 
L 187.544218 158.396519 
L 189.19221 158.637472 
L 190.840203 158.693092 
L 192.488196 160.004927 
L 194.136188 165.427323 
L 195.784181 174.455201 
L 197.432174 184.914784 
L 199.080166 193.954233 
L 200.728159 202.942938 
L 202.376151 209.148359 
L 204.024144 216.556962 
L 205.672137 223.634278 
L 207.320129 231.760697 
L 208.968122 236.23026 
L 210.616114 241.867855 
L 212.264107 244.804991 
L 213.9121 244.70846 
L 215.560092 244.948194 
L 217.208085 245.053691 
L 218.856078 244.908546 
L 220.50407 242.706834 
L 222.152063 245.830379 
L 223.800055 250.904662 
L 225.448048 253.35767 
L 227.096041 255.579766 
L 228.744033 261.003803 
L 230.392026 264.886998 
L 232.040018 266.256552 
L 233.688011 266.593307 
L 235.336004 266.637437 
L 236.983996 267.363725 
L 238.631989 267.37689 
L 240.279982 268.35783 
L 241.927974 269.634793 
L 243.575967 271.170588 
L 245.223959 272.688119 
L 246.871952 273.629237 
L 248.519945 274.55928 
L 250.167937 275.004569 
L 251.81593 274.558582 
L 253.463922 274.344151 
L 255.111915 274.939338 
L 256.759908 274.926168 
L 258.4079 273.942288 
L 260.055893 272.952507 
L 261.703886 272.192118 
L 263.351878 270.502988 
L 264.999871 267.519415 
L 266.647863 263.790996 
L 268.295856 259.218195 
L 269.943849 252.798164 
L 271.591841 244.938502 
L 273.239834 239.328576 
L 274.887826 231.411828 
L 276.535819 221.451126 
L 278.183812 212.881479 
L 279.831804 208.841788 
L 281.479797 200.223764 
L 283.12779 186.412061 
L 284.775782 183.117546 
L 286.423775 177.362463 
L 288.071767 169.649245 
L 289.71976 162.741813 
L 291.367753 159.982023 
L 293.015745 165.175002 
L 294.663738 162.260928 
L 296.311731 158.807499 
L 297.959723 159.24765 
L 299.607716 170.553232 
L 301.255708 167.07707 
L 302.903701 160.037473 
L 304.551694 162.530324 
L 306.199686 168.066044 
L 307.847679 166.470295 
L 309.495671 160.419834 
L 311.143664 166.713536 
L 312.791657 182.64245 
L 314.439649 185.025631 
L 316.087642 182.706138 
L 317.735635 180.319411 
L 319.383627 186.732007 
L 321.03162 185.648978 
L 322.679612 179.387553 
L 324.327605 182.806188 
L 325.975598 193.912437 
L 327.62359 208.586601 
L 329.271583 206.890446 
L 330.919575 209.830361 
L 332.567568 221.416176 
L 334.215561 230.126297 
L 335.863553 235.486951 
L 337.511546 241.110182 
L 339.159539 251.579943 
L 340.807531 260.130872 
L 342.455524 262.905219 
L 344.103516 264.286674 
L 345.751509 266.671598 
L 347.399502 270.140629 
L 349.047494 272.377035 
L 350.695487 272.831814 
L 352.343479 273.918852 
L 353.991472 274.777567 
L 355.639465 274.632609 
L 357.287457 274.443943 
L 358.93545 274.241812 
L 360.583443 274.002618 
L 362.231435 274.336073 
L 363.879428 275.013973 
L 365.52742 275.339244 
L 367.175413 275.697869 
L 368.823406 275.95851 
L 370.471398 275.996356 
L 372.119391 275.206654 
L 373.767383 273.878985 
L 375.415376 272.862869 
L 377.063369 271.696614 
L 378.711361 269.76222 
L 380.359354 265.375705 
L 382.007347 258.231831 
L 383.655339 249.522373 
L 385.303332 232.316249 
L 386.951324 211.450909 
L 388.599317 197.070317 
L 390.24731 188.240166 
L 391.895302 177.624614 
L 393.543295 167.418076 
L 395.191287 168.051706 
L 396.83928 173.888995 
L 398.487273 170.670789 
L 398.487273 144.299691 
L 398.487273 144.299691 
L 396.83928 146.470966 
L 395.191287 142.700797 
L 393.543295 140.529518 
L 391.895302 147.297965 
L 390.24731 150.736114 
L 388.599317 153.614952 
L 386.951324 157.117075 
L 385.303332 161.062779 
L 383.655339 165.586491 
L 382.007347 165.267464 
L 380.359354 165.21336 
L 378.711361 164.799921 
L 377.063369 164.766881 
L 375.415376 164.355105 
L 373.767383 164.240638 
L 372.119391 163.697061 
L 370.471398 163.365288 
L 368.823406 163.390043 
L 367.175413 163.537723 
L 365.52742 163.722224 
L 363.879428 163.910325 
L 362.231435 164.048594 
L 360.583443 164.149747 
L 358.93545 164.133276 
L 357.287457 164.032365 
L 355.639465 163.979756 
L 353.991472 164.052399 
L 352.343479 163.981839 
L 350.695487 164.516199 
L 349.047494 164.641005 
L 347.399502 164.361987 
L 345.751509 164.625703 
L 344.103516 164.682101 
L 342.455524 164.793627 
L 340.807531 164.602885 
L 339.159539 163.764574 
L 337.511546 163.47463 
L 335.863553 161.795744 
L 334.215561 160.199921 
L 332.567568 157.878351 
L 330.919575 155.996662 
L 329.271583 155.219106 
L 327.62359 155.579357 
L 325.975598 151.536105 
L 324.327605 148.398147 
L 322.679612 147.532595 
L 321.03162 149.636914 
L 319.383627 149.644278 
L 317.735635 147.758479 
L 316.087642 148.40486 
L 314.439649 149.016066 
L 312.791657 148.36917 
L 311.143664 138.497338 
L 309.495671 127.753184 
L 307.847679 137.896521 
L 306.199686 142.790638 
L 304.551694 132.512881 
L 302.903701 127.033533 
L 301.255708 138.99343 
L 299.607716 144.765161 
L 297.959723 128.737272 
L 296.311731 123.596343 
L 294.663738 130.230056 
L 293.015745 136.659778 
L 291.367753 129.49875 
L 289.71976 128.037789 
L 288.071767 142.590626 
L 286.423775 147.21346 
L 284.775782 148.519479 
L 283.12779 150.234306 
L 281.479797 154.069286 
L 279.831804 155.883528 
L 278.183812 157.207874 
L 276.535819 158.461185 
L 274.887826 160.768882 
L 273.239834 163.114444 
L 271.591841 164.353348 
L 269.943849 165.423732 
L 268.295856 165.156728 
L 266.647863 165.131628 
L 264.999871 164.959877 
L 263.351878 164.752844 
L 261.703886 164.862702 
L 260.055893 164.261234 
L 258.4079 164.247073 
L 256.759908 163.888012 
L 255.111915 163.94237 
L 253.463922 164.056551 
L 251.81593 163.978457 
L 250.167937 163.910917 
L 248.519945 163.962022 
L 246.871952 164.050636 
L 245.223959 164.695668 
L 243.575967 164.359481 
L 241.927974 164.571325 
L 240.279982 164.647637 
L 238.631989 164.744859 
L 236.983996 164.731372 
L 235.336004 164.745957 
L 233.688011 164.755687 
L 232.040018 164.731833 
L 230.392026 164.656946 
L 228.744033 164.566168 
L 227.096041 164.71008 
L 225.448048 164.757844 
L 223.800055 164.391461 
L 222.152063 163.710252 
L 220.50407 164.100191 
L 218.856078 164.304866 
L 217.208085 164.068018 
L 215.560092 164.131948 
L 213.9121 164.151363 
L 212.264107 164.191782 
L 210.616114 163.865038 
L 208.968122 161.983537 
L 207.320129 160.631692 
L 205.672137 158.435533 
L 204.024144 156.953421 
L 202.376151 155.745801 
L 200.728159 154.064039 
L 199.080166 151.766533 
L 197.432174 148.907107 
L 195.784181 146.539942 
L 194.136188 137.198319 
L 192.488196 129.804748 
L 190.840203 124.723037 
L 189.19221 121.293492 
L 187.544218 113.394085 
L 185.896225 96.468573 
L 184.248233 88.076698 
L 182.60024 83.452803 
L 180.952247 72.292903 
L 179.304255 64.361837 
L 177.656262 53.568 
L 176.008269 55.166806 
L 174.360277 56.205925 
L 172.712284 57.207706 
L 171.064292 62.117161 
L 169.416299 67.256345 
L 167.768306 75.898376 
L 166.120314 82.721071 
L 164.472321 89.452395 
L 162.824329 93.340967 
L 161.176336 104.269034 
L 159.528343 115.053436 
L 157.880351 130.493418 
L 156.232358 144.467052 
L 154.584365 151.80289 
L 152.936373 157.570726 
L 151.28838 160.140524 
L 149.640388 163.855055 
L 147.992395 165.42987 
L 146.344402 165.430164 
L 144.69641 164.982972 
L 143.048417 164.714094 
L 141.400425 164.727713 
L 139.752432 164.768366 
L 138.104439 164.51942 
L 136.456447 164.745282 
L 134.808454 164.765697 
L 133.160461 164.698837 
L 131.512469 164.634295 
L 129.864476 164.574639 
L 128.216484 164.797925 
L 126.568491 164.688379 
L 124.920498 164.803625 
L 123.272506 164.637383 
L 121.624513 164.361838 
L 119.976521 164.533467 
L 118.328528 164.511207 
L 116.680535 164.617237 
L 115.032543 164.791472 
L 113.38455 164.802399 
L 111.736557 164.888898 
L 110.088565 164.734798 
L 108.440572 164.775276 
L 106.79258 164.692053 
L 105.144587 164.4157 
L 103.496594 164.142696 
L 101.848602 163.796324 
L 100.200609 161.712542 
L 98.552617 158.622711 
L 96.904624 154.735379 
L 95.256631 151.835295 
L 93.608639 149.100536 
L 91.960646 146.848371 
L 90.312653 144.676474 
L 88.664661 142.384246 
L 87.016668 146.08928 
L 85.368676 144.623224 
L 83.720683 133.251708 
L 82.07269 114.52665 
L 80.424698 99.694479 
L 78.776705 96.561411 
L 77.128713 91.961326 
L 75.48072 95.294916 
L 73.832727 111.181604 
z
" style="fill:#008000;fill-opacity:0.4;"/>
   </g>
   <g id="matplotlib.axis_1">
    <g id="xtick_1">
     <g id="line2d_1">
      <defs>
       <path d="M 0 0 
L 0 3.5 
" id="m59ebe17946" style="stroke:#000000;stroke-width:0.8;"/>
      </defs>
      <g>
       <use style="stroke:#000000;stroke-width:0.8;" x="73.832727" xlink:href="#m59ebe17946" y="307.584"/>
      </g>
     </g>
     <g id="text_1">
      <!-- 0.0 -->
      <defs>
       <path d="M 31.78125 66.40625 
Q 24.171875 66.40625 20.328125 58.90625 
Q 16.5 51.421875 16.5 36.375 
Q 16.5 21.390625 20.328125 13.890625 
Q 24.171875 6.390625 31.78125 6.390625 
Q 39.453125 6.390625 43.28125 13.890625 
Q 47.125 21.390625 47.125 36.375 
Q 47.125 51.421875 43.28125 58.90625 
Q 39.453125 66.40625 31.78125 66.40625 
z
M 31.78125 74.21875 
Q 44.046875 74.21875 50.515625 64.515625 
Q 56.984375 54.828125 56.984375 36.375 
Q 56.984375 17.96875 50.515625 8.265625 
Q 44.046875 -1.421875 31.78125 -1.421875 
Q 19.53125 -1.421875 13.0625 8.265625 
Q 6.59375 17.96875 6.59375 36.375 
Q 6.59375 54.828125 13.0625 64.515625 
Q 19.53125 74.21875 31.78125 74.21875 
z
" id="DejaVuSans-30"/>
       <path d="M 10.6875 12.40625 
L 21 12.40625 
L 21 0 
L 10.6875 0 
z
" id="DejaVuSans-2e"/>
      </defs>
      <g transform="translate(65.881165 322.182437)scale(0.1 -0.1)">
       <use xlink:href="#DejaVuSans-30"/>
       <use x="63.623047" xlink:href="#DejaVuSans-2e"/>
       <use x="95.410156" xlink:href="#DejaVuSans-30"/>
      </g>
     </g>
    </g>
    <g id="xtick_2">
     <g id="line2d_2">
      <g>
       <use style="stroke:#000000;stroke-width:0.8;" x="138.763636" xlink:href="#m59ebe17946" y="307.584"/>
      </g>
     </g>
     <g id="text_2">
      <!-- 0.2 -->
      <defs>
       <path d="M 19.1875 8.296875 
L 53.609375 8.296875 
L 53.609375 0 
L 7.328125 0 
L 7.328125 8.296875 
Q 12.9375 14.109375 22.625 23.890625 
Q 32.328125 33.6875 34.8125 36.53125 
Q 39.546875 41.84375 41.421875 45.53125 
Q 43.3125 49.21875 43.3125 52.78125 
Q 43.3125 58.59375 39.234375 62.25 
Q 35.15625 65.921875 28.609375 65.921875 
Q 23.96875 65.921875 18.8125 64.3125 
Q 13.671875 62.703125 7.8125 59.421875 
L 7.8125 69.390625 
Q 13.765625 71.78125 18.9375 73 
Q 24.125 74.21875 28.421875 74.21875 
Q 39.75 74.21875 46.484375 68.546875 
Q 53.21875 62.890625 53.21875 53.421875 
Q 53.21875 48.921875 51.53125 44.890625 
Q 49.859375 40.875 45.40625 35.40625 
Q 44.1875 33.984375 37.640625 27.21875 
Q 31.109375 20.453125 19.1875 8.296875 
z
" id="DejaVuSans-32"/>
      </defs>
      <g transform="translate(130.812074 322.182437)scale(0.1 -0.1)">
       <use xlink:href="#DejaVuSans-30"/>
       <use x="63.623047" xlink:href="#DejaVuSans-2e"/>
       <use x="95.410156" xlink:href="#DejaVuSans-32"/>
      </g>
     </g>
    </g>
    <g id="xtick_3">
     <g id="line2d_3">
      <g>
       <use style="stroke:#000000;stroke-width:0.8;" x="203.694545" xlink:href="#m59ebe17946" y="307.584"/>
      </g>
     </g>
     <g id="text_3">
      <!-- 0.4 -->
      <defs>
       <path d="M 37.796875 64.3125 
L 12.890625 25.390625 
L 37.796875 25.390625 
z
M 35.203125 72.90625 
L 47.609375 72.90625 
L 47.609375 25.390625 
L 58.015625 25.390625 
L 58.015625 17.1875 
L 47.609375 17.1875 
L 47.609375 0 
L 37.796875 0 
L 37.796875 17.1875 
L 4.890625 17.1875 
L 4.890625 26.703125 
z
" id="DejaVuSans-34"/>
      </defs>
      <g transform="translate(195.742983 322.182437)scale(0.1 -0.1)">
       <use xlink:href="#DejaVuSans-30"/>
       <use x="63.623047" xlink:href="#DejaVuSans-2e"/>
       <use x="95.410156" xlink:href="#DejaVuSans-34"/>
      </g>
     </g>
    </g>
    <g id="xtick_4">
     <g id="line2d_4">
      <g>
       <use style="stroke:#000000;stroke-width:0.8;" x="268.625455" xlink:href="#m59ebe17946" y="307.584"/>
      </g>
     </g>
     <g id="text_4">
      <!-- 0.6 -->
      <defs>
       <path d="M 33.015625 40.375 
Q 26.375 40.375 22.484375 35.828125 
Q 18.609375 31.296875 18.609375 23.390625 
Q 18.609375 15.53125 22.484375 10.953125 
Q 26.375 6.390625 33.015625 6.390625 
Q 39.65625 6.390625 43.53125 10.953125 
Q 47.40625 15.53125 47.40625 23.390625 
Q 47.40625 31.296875 43.53125 35.828125 
Q 39.65625 40.375 33.015625 40.375 
z
M 52.59375 71.296875 
L 52.59375 62.3125 
Q 48.875 64.0625 45.09375 64.984375 
Q 41.3125 65.921875 37.59375 65.921875 
Q 27.828125 65.921875 22.671875 59.328125 
Q 17.53125 52.734375 16.796875 39.40625 
Q 19.671875 43.65625 24.015625 45.921875 
Q 28.375 48.1875 33.59375 48.1875 
Q 44.578125 48.1875 50.953125 41.515625 
Q 57.328125 34.859375 57.328125 23.390625 
Q 57.328125 12.15625 50.6875 5.359375 
Q 44.046875 -1.421875 33.015625 -1.421875 
Q 20.359375 -1.421875 13.671875 8.265625 
Q 6.984375 17.96875 6.984375 36.375 
Q 6.984375 53.65625 15.1875 63.9375 
Q 23.390625 74.21875 37.203125 74.21875 
Q 40.921875 74.21875 44.703125 73.484375 
Q 48.484375 72.75 52.59375 71.296875 
z
" id="DejaVuSans-36"/>
      </defs>
      <g transform="translate(260.673892 322.182437)scale(0.1 -0.1)">
       <use xlink:href="#DejaVuSans-30"/>
       <use x="63.623047" xlink:href="#DejaVuSans-2e"/>
       <use x="95.410156" xlink:href="#DejaVuSans-36"/>
      </g>
     </g>
    </g>
    <g id="xtick_5">
     <g id="line2d_5">
      <g>
       <use style="stroke:#000000;stroke-width:0.8;" x="333.556364" xlink:href="#m59ebe17946" y="307.584"/>
      </g>
     </g>
     <g id="text_5">
      <!-- 0.8 -->
      <defs>
       <path d="M 31.78125 34.625 
Q 24.75 34.625 20.71875 30.859375 
Q 16.703125 27.09375 16.703125 20.515625 
Q 16.703125 13.921875 20.71875 10.15625 
Q 24.75 6.390625 31.78125 6.390625 
Q 38.8125 6.390625 42.859375 10.171875 
Q 46.921875 13.96875 46.921875 20.515625 
Q 46.921875 27.09375 42.890625 30.859375 
Q 38.875 34.625 31.78125 34.625 
z
M 21.921875 38.8125 
Q 15.578125 40.375 12.03125 44.71875 
Q 8.5 49.078125 8.5 55.328125 
Q 8.5 64.0625 14.71875 69.140625 
Q 20.953125 74.21875 31.78125 74.21875 
Q 42.671875 74.21875 48.875 69.140625 
Q 55.078125 64.0625 55.078125 55.328125 
Q 55.078125 49.078125 51.53125 44.71875 
Q 48 40.375 41.703125 38.8125 
Q 48.828125 37.15625 52.796875 32.3125 
Q 56.78125 27.484375 56.78125 20.515625 
Q 56.78125 9.90625 50.3125 4.234375 
Q 43.84375 -1.421875 31.78125 -1.421875 
Q 19.734375 -1.421875 13.25 4.234375 
Q 6.78125 9.90625 6.78125 20.515625 
Q 6.78125 27.484375 10.78125 32.3125 
Q 14.796875 37.15625 21.921875 38.8125 
z
M 18.3125 54.390625 
Q 18.3125 48.734375 21.84375 45.5625 
Q 25.390625 42.390625 31.78125 42.390625 
Q 38.140625 42.390625 41.71875 45.5625 
Q 45.3125 48.734375 45.3125 54.390625 
Q 45.3125 60.0625 41.71875 63.234375 
Q 38.140625 66.40625 31.78125 66.40625 
Q 25.390625 66.40625 21.84375 63.234375 
Q 18.3125 60.0625 18.3125 54.390625 
z
" id="DejaVuSans-38"/>
      </defs>
      <g transform="translate(325.604801 322.182437)scale(0.1 -0.1)">
       <use xlink:href="#DejaVuSans-30"/>
       <use x="63.623047" xlink:href="#DejaVuSans-2e"/>
       <use x="95.410156" xlink:href="#DejaVuSans-38"/>
      </g>
     </g>
    </g>
    <g id="xtick_6">
     <g id="line2d_6">
      <g>
       <use style="stroke:#000000;stroke-width:0.8;" x="398.487273" xlink:href="#m59ebe17946" y="307.584"/>
      </g>
     </g>
     <g id="text_6">
      <!-- 1.0 -->
      <defs>
       <path d="M 12.40625 8.296875 
L 28.515625 8.296875 
L 28.515625 63.921875 
L 10.984375 60.40625 
L 10.984375 69.390625 
L 28.421875 72.90625 
L 38.28125 72.90625 
L 38.28125 8.296875 
L 54.390625 8.296875 
L 54.390625 0 
L 12.40625 0 
z
" id="DejaVuSans-31"/>
      </defs>
      <g transform="translate(390.53571 322.182437)scale(0.1 -0.1)">
       <use xlink:href="#DejaVuSans-31"/>
       <use x="63.623047" xlink:href="#DejaVuSans-2e"/>
       <use x="95.410156" xlink:href="#DejaVuSans-30"/>
      </g>
     </g>
    </g>
   </g>
   <g id="matplotlib.axis_2">
    <g id="ytick_1">
     <g id="line2d_7">
      <defs>
       <path d="M 0 0 
L -3.5 0 
" id="mf7be6d6672" style="stroke:#000000;stroke-width:0.8;"/>
      </defs>
      <g>
       <use style="stroke:#000000;stroke-width:0.8;" x="57.6" xlink:href="#mf7be6d6672" y="299.387947"/>
      </g>
     </g>
     <g id="text_7">
      <!-- 0.0 -->
      <g transform="translate(34.696875 303.187166)scale(0.1 -0.1)">
       <use xlink:href="#DejaVuSans-30"/>
       <use x="63.623047" xlink:href="#DejaVuSans-2e"/>
       <use x="95.410156" xlink:href="#DejaVuSans-30"/>
      </g>
     </g>
    </g>
    <g id="ytick_2">
     <g id="line2d_8">
      <g>
       <use style="stroke:#000000;stroke-width:0.8;" x="57.6" xlink:href="#mf7be6d6672" y="260.934516"/>
      </g>
     </g>
     <g id="text_8">
      <!-- 0.1 -->
      <g transform="translate(34.696875 264.733735)scale(0.1 -0.1)">
       <use xlink:href="#DejaVuSans-30"/>
       <use x="63.623047" xlink:href="#DejaVuSans-2e"/>
       <use x="95.410156" xlink:href="#DejaVuSans-31"/>
      </g>
     </g>
    </g>
    <g id="ytick_3">
     <g id="line2d_9">
      <g>
       <use style="stroke:#000000;stroke-width:0.8;" x="57.6" xlink:href="#mf7be6d6672" y="222.481085"/>
      </g>
     </g>
     <g id="text_9">
      <!-- 0.2 -->
      <g transform="translate(34.696875 226.280304)scale(0.1 -0.1)">
       <use xlink:href="#DejaVuSans-30"/>
       <use x="63.623047" xlink:href="#DejaVuSans-2e"/>
       <use x="95.410156" xlink:href="#DejaVuSans-32"/>
      </g>
     </g>
    </g>
    <g id="ytick_4">
     <g id="line2d_10">
      <g>
       <use style="stroke:#000000;stroke-width:0.8;" x="57.6" xlink:href="#mf7be6d6672" y="184.027654"/>
      </g>
     </g>
     <g id="text_10">
      <!-- 0.3 -->
      <defs>
       <path d="M 40.578125 39.3125 
Q 47.65625 37.796875 51.625 33 
Q 55.609375 28.21875 55.609375 21.1875 
Q 55.609375 10.40625 48.1875 4.484375 
Q 40.765625 -1.421875 27.09375 -1.421875 
Q 22.515625 -1.421875 17.65625 -0.515625 
Q 12.796875 0.390625 7.625 2.203125 
L 7.625 11.71875 
Q 11.71875 9.328125 16.59375 8.109375 
Q 21.484375 6.890625 26.8125 6.890625 
Q 36.078125 6.890625 40.9375 10.546875 
Q 45.796875 14.203125 45.796875 21.1875 
Q 45.796875 27.640625 41.28125 31.265625 
Q 36.765625 34.90625 28.71875 34.90625 
L 20.21875 34.90625 
L 20.21875 43.015625 
L 29.109375 43.015625 
Q 36.375 43.015625 40.234375 45.921875 
Q 44.09375 48.828125 44.09375 54.296875 
Q 44.09375 59.90625 40.109375 62.90625 
Q 36.140625 65.921875 28.71875 65.921875 
Q 24.65625 65.921875 20.015625 65.03125 
Q 15.375 64.15625 9.8125 62.3125 
L 9.8125 71.09375 
Q 15.4375 72.65625 20.34375 73.4375 
Q 25.25 74.21875 29.59375 74.21875 
Q 40.828125 74.21875 47.359375 69.109375 
Q 53.90625 64.015625 53.90625 55.328125 
Q 53.90625 49.265625 50.4375 45.09375 
Q 46.96875 40.921875 40.578125 39.3125 
z
" id="DejaVuSans-33"/>
      </defs>
      <g transform="translate(34.696875 187.826873)scale(0.1 -0.1)">
       <use xlink:href="#DejaVuSans-30"/>
       <use x="63.623047" xlink:href="#DejaVuSans-2e"/>
       <use x="95.410156" xlink:href="#DejaVuSans-33"/>
      </g>
     </g>
    </g>
    <g id="ytick_5">
     <g id="line2d_11">
      <g>
       <use style="stroke:#000000;stroke-width:0.8;" x="57.6" xlink:href="#mf7be6d6672" y="145.574224"/>
      </g>
     </g>
     <g id="text_11">
      <!-- 0.4 -->
      <g transform="translate(34.696875 149.373442)scale(0.1 -0.1)">
       <use xlink:href="#DejaVuSans-30"/>
       <use x="63.623047" xlink:href="#DejaVuSans-2e"/>
       <use x="95.410156" xlink:href="#DejaVuSans-34"/>
      </g>
     </g>
    </g>
    <g id="ytick_6">
     <g id="line2d_12">
      <g>
       <use style="stroke:#000000;stroke-width:0.8;" x="57.6" xlink:href="#mf7be6d6672" y="107.120793"/>
      </g>
     </g>
     <g id="text_12">
      <!-- 0.5 -->
      <defs>
       <path d="M 10.796875 72.90625 
L 49.515625 72.90625 
L 49.515625 64.59375 
L 19.828125 64.59375 
L 19.828125 46.734375 
Q 21.96875 47.46875 24.109375 47.828125 
Q 26.265625 48.1875 28.421875 48.1875 
Q 40.625 48.1875 47.75 41.5 
Q 54.890625 34.8125 54.890625 23.390625 
Q 54.890625 11.625 47.5625 5.09375 
Q 40.234375 -1.421875 26.90625 -1.421875 
Q 22.3125 -1.421875 17.546875 -0.640625 
Q 12.796875 0.140625 7.71875 1.703125 
L 7.71875 11.625 
Q 12.109375 9.234375 16.796875 8.0625 
Q 21.484375 6.890625 26.703125 6.890625 
Q 35.15625 6.890625 40.078125 11.328125 
Q 45.015625 15.765625 45.015625 23.390625 
Q 45.015625 31 40.078125 35.4375 
Q 35.15625 39.890625 26.703125 39.890625 
Q 22.75 39.890625 18.8125 39.015625 
Q 14.890625 38.140625 10.796875 36.28125 
z
" id="DejaVuSans-35"/>
      </defs>
      <g transform="translate(34.696875 110.920011)scale(0.1 -0.1)">
       <use xlink:href="#DejaVuSans-30"/>
       <use x="63.623047" xlink:href="#DejaVuSans-2e"/>
       <use x="95.410156" xlink:href="#DejaVuSans-35"/>
      </g>
     </g>
    </g>
    <g id="ytick_7">
     <g id="line2d_13">
      <g>
       <use style="stroke:#000000;stroke-width:0.8;" x="57.6" xlink:href="#mf7be6d6672" y="68.667362"/>
      </g>
     </g>
     <g id="text_13">
      <!-- 0.6 -->
      <g transform="translate(34.696875 72.466581)scale(0.1 -0.1)">
       <use xlink:href="#DejaVuSans-30"/>
       <use x="63.623047" xlink:href="#DejaVuSans-2e"/>
       <use x="95.410156" xlink:href="#DejaVuSans-36"/>
      </g>
     </g>
    </g>
   </g>
   <g id="line2d_14">
    <path clip-path="url(#p653e037ffb)" d="M 73.832727 109.590657 
L 75.48072 105.430764 
L 77.128713 112.970713 
L 78.776705 113.750549 
L 80.424698 131.170337 
L 82.07269 146.51018 
L 83.720683 158.469966 
L 85.368676 155.87013 
L 87.016668 150.150182 
L 88.664661 156.649965 
L 90.312653 161.590078 
L 91.960646 171.989808 
L 93.608639 176.66959 
L 95.256631 193.049598 
L 96.904624 210.729332 
L 100.200609 232.309013 
L 101.848602 238.808797 
L 103.496594 255.708695 
L 105.144587 263.24849 
L 106.79258 265.588458 
L 108.440572 268.448393 
L 110.088565 266.368447 
L 111.736557 265.588458 
L 113.38455 265.588458 
L 115.032543 269.748389 
L 116.680535 277.028277 
L 118.328528 279.108261 
L 119.976521 280.408218 
L 121.624513 284.308165 
L 123.272506 284.308165 
L 124.920498 285.60816 
L 126.568491 282.488202 
L 128.216484 280.928224 
L 129.864476 283.268192 
L 131.512469 283.008208 
L 133.160461 284.568149 
L 134.808454 284.828171 
L 136.456447 286.388149 
L 138.104439 284.308165 
L 139.752432 281.188207 
L 141.400425 277.028277 
L 143.048417 271.308367 
L 144.69641 256.48853 
L 146.344402 238.548851 
L 147.992395 223.468954 
L 149.640388 209.429222 
L 152.936373 169.389971 
L 154.584365 152.490073 
L 156.232358 138.190396 
L 157.880351 127.010445 
L 159.528343 114.790714 
L 161.176336 108.810821 
L 162.824329 103.610764 
L 164.472321 98.930981 
L 167.768306 84.631304 
L 171.064292 75.011409 
L 172.712284 77.611245 
L 174.360277 73.711298 
L 176.008269 75.271354 
L 177.656262 84.631304 
L 179.304255 92.951088 
L 180.952247 102.830928 
L 182.60024 103.350818 
L 184.248233 114.010878 
L 185.896225 129.870611 
L 187.544218 132.470448 
L 189.19221 134.290449 
L 190.840203 141.570452 
L 192.488196 148.070236 
L 194.136188 162.889803 
L 197.432174 178.229646 
L 199.080166 187.589596 
L 200.728159 191.229597 
L 202.376151 200.589547 
L 204.024144 207.609221 
L 205.672137 216.189335 
L 207.320129 221.129063 
L 208.968122 230.229067 
L 210.616114 232.568958 
L 213.9121 231.008903 
L 215.560092 232.828904 
L 217.208085 232.568958 
L 218.856078 227.628846 
L 222.152063 242.448798 
L 223.800055 246.60869 
L 225.448048 248.948582 
L 227.096041 260.128532 
L 228.744033 267.668404 
L 230.392026 269.748389 
L 232.040018 271.048384 
L 233.688011 270.008372 
L 235.336004 272.088357 
L 236.983996 271.828373 
L 238.631989 273.648335 
L 240.279982 278.06825 
L 243.575967 285.348138 
L 245.223959 287.948128 
L 246.871952 291.068086 
L 248.519945 292.108059 
L 250.167937 291.328069 
L 251.81593 290.028074 
L 253.463922 292.108059 
L 255.111915 292.368042 
L 256.759908 289.248085 
L 258.4079 286.388149 
L 260.055893 283.788159 
L 261.703886 278.848239 
L 263.351878 271.828373 
L 264.999871 261.688511 
L 266.647863 255.44875 
L 268.295856 240.888743 
L 269.943849 230.229067 
L 271.591841 222.429173 
L 273.239834 212.289388 
L 274.887826 201.369383 
L 276.535819 192.529708 
L 278.183812 191.229597 
L 279.831804 178.749921 
L 281.479797 168.349806 
L 283.12779 166.009915 
L 284.775782 160.289967 
L 286.423775 152.230128 
L 288.071767 134.550394 
L 289.71976 142.350288 
L 291.367753 144.690179 
L 293.015745 139.490122 
L 294.663738 132.470448 
L 296.311731 140.010397 
L 297.959723 160.289967 
L 299.607716 144.430234 
L 301.255708 137.15023 
L 302.903701 143.130123 
L 304.551694 156.39002 
L 306.199686 144.430234 
L 307.847679 136.11045 
L 309.495671 154.310074 
L 311.143664 168.609751 
L 312.791657 167.829916 
L 314.439649 165.230079 
L 316.087642 164.449859 
L 317.735635 172.249753 
L 319.383627 168.089861 
L 321.03162 161.330132 
L 322.679612 167.829916 
L 324.327605 178.749921 
L 325.975598 193.569489 
L 327.62359 186.80976 
L 329.271583 193.569489 
L 330.919575 207.349276 
L 335.863553 227.368901 
L 337.511546 245.828855 
L 339.159539 258.568477 
L 340.807531 262.988468 
L 342.455524 266.108425 
L 344.103516 270.268394 
L 345.751509 279.888251 
L 347.399502 284.308165 
L 349.047494 286.128127 
L 350.695487 288.988101 
L 352.343479 291.328069 
L 353.991472 291.588053 
L 355.639465 290.54808 
L 357.287457 290.54808 
L 358.93545 289.248085 
L 360.583443 290.288096 
L 362.231435 292.108059 
L 363.879428 292.888048 
L 365.52742 294.708011 
L 367.175413 295.488 
L 368.823406 295.488 
L 370.471398 293.148032 
L 372.119391 289.248085 
L 373.767383 286.388149 
L 375.415376 282.488202 
L 377.063369 276.508271 
L 378.711361 265.848442 
L 382.007347 236.20896 
L 383.655339 208.909331 
L 385.303332 189.409597 
L 386.951324 177.449811 
L 388.599317 169.909862 
L 390.24731 159.250186 
L 391.895302 147.03007 
L 393.543295 154.829964 
L 395.191287 159.770077 
L 396.83928 153.009963 
L 398.487273 142.870178 
L 398.487273 142.870178 
" style="fill:none;stroke:#1f77b4;stroke-linecap:square;stroke-width:1.5;"/>
   </g>
   <g id="line2d_15">
    <path clip-path="url(#p653e037ffb)" d="M 73.832727 127.056971 
L 75.48072 112.755303 
L 77.128713 109.562925 
L 78.776705 114.19681 
L 80.424698 116.775767 
L 83.720683 148.088356 
L 85.368676 159.47499 
L 87.016668 160.656934 
L 88.664661 154.710718 
L 90.312653 159.077718 
L 91.960646 164.656516 
L 93.608639 173.53696 
L 95.256631 181.430269 
L 96.904624 192.60685 
L 98.552617 208.155229 
L 100.200609 217.384923 
L 101.848602 224.782053 
L 103.496594 229.866532 
L 105.144587 237.642329 
L 106.79258 243.015188 
L 108.440572 244.477656 
L 110.088565 245.250226 
L 111.736557 244.958004 
L 113.38455 244.278288 
L 115.032543 244.641994 
L 116.680535 246.101589 
L 118.328528 248.817728 
L 119.976521 250.284248 
L 121.624513 250.847898 
L 123.272506 252.131875 
L 126.568491 252.710228 
L 128.216484 251.980318 
L 129.864476 251.089183 
L 131.512469 251.669872 
L 133.160461 251.91138 
L 134.808454 252.368857 
L 136.456447 252.558979 
L 138.104439 252.952315 
L 139.752432 252.554229 
L 141.400425 251.236538 
L 143.048417 249.772733 
L 144.69641 246.866771 
L 146.344402 240.623876 
L 149.640388 220.736115 
L 151.28838 209.223933 
L 152.936373 194.145675 
L 154.584365 174.831215 
L 156.232358 158.233927 
L 159.528343 129.586996 
L 162.824329 110.386496 
L 164.472321 107.147648 
L 166.120314 101.471813 
L 167.768306 95.330232 
L 169.416299 87.73752 
L 171.064292 83.34799 
L 172.712284 79.298682 
L 174.360277 79.047846 
L 176.008269 77.5858 
L 177.656262 77.66809 
L 179.304255 87.665143 
L 180.952247 93.716732 
L 182.60024 103.355632 
L 184.248233 106.910992 
L 185.896225 115.469127 
L 187.544218 129.963198 
L 189.19221 135.164039 
L 190.840203 138.236297 
L 192.488196 142.961897 
L 194.136188 151.421706 
L 195.784181 164.057012 
L 199.080166 181.233877 
L 200.728159 188.964757 
L 202.376151 193.947863 
L 207.320129 213.616897 
L 208.968122 217.589147 
L 210.616114 223.045243 
L 212.264107 225.359571 
L 213.9121 225.023663 
L 215.560092 225.418375 
L 217.208085 225.597338 
L 218.856078 225.122074 
L 220.50407 222.899822 
L 222.152063 226.951076 
L 223.800055 231.722579 
L 227.096041 235.865273 
L 228.744033 241.111358 
L 230.392026 244.965372 
L 232.040018 246.211531 
L 233.688011 246.608701 
L 235.336004 246.59968 
L 236.983996 247.229645 
L 238.631989 247.298982 
L 240.279982 247.991275 
L 245.223959 252.672898 
L 248.519945 254.604138 
L 250.167937 255.144949 
L 253.463922 254.661431 
L 255.111915 254.987174 
L 256.759908 255.185777 
L 258.4079 254.357117 
L 260.055893 253.222629 
L 261.703886 252.378427 
L 263.351878 250.399109 
L 264.999871 247.322223 
L 266.647863 243.405708 
L 268.295856 239.135218 
L 269.943849 232.176273 
L 271.591841 224.356042 
L 273.239834 219.284276 
L 274.887826 211.987407 
L 276.535819 203.323202 
L 278.183812 195.801553 
L 279.831804 192.700789 
L 281.479797 184.184721 
L 283.12779 172.168862 
L 284.775782 169.830465 
L 286.423775 164.555907 
L 288.071767 156.010867 
L 289.71976 141.515663 
L 291.367753 143.066787 
L 293.015745 149.195033 
L 294.663738 142.564868 
L 296.311731 136.637204 
L 297.959723 143.45347 
L 299.607716 160.283982 
L 301.255708 152.062514 
L 302.903701 139.811367 
L 304.551694 146.534079 
L 306.199686 156.857334 
L 307.847679 150.318115 
L 309.495671 140.830092 
L 311.143664 154.517325 
L 312.791657 171.298757 
L 314.439649 171.824137 
L 316.087642 169.396345 
L 317.735635 167.443752 
L 319.383627 174.440663 
L 321.03162 171.921154 
L 322.679612 166.264847 
L 324.327605 170.669085 
L 325.975598 181.289408 
L 327.62359 194.035313 
L 329.271583 191.100654 
L 330.919575 194.782433 
L 332.567568 205.125779 
L 334.215561 212.229008 
L 335.863553 216.927156 
L 337.511546 222.334774 
L 339.159539 232.04748 
L 340.807531 240.263663 
L 342.455524 243.124804 
L 344.103516 244.274365 
L 345.751509 246.460074 
L 347.399502 249.738796 
L 349.047494 252.338357 
L 350.695487 252.929053 
L 352.343479 253.980323 
L 353.991472 254.810984 
L 355.639465 254.890957 
L 358.93545 254.573056 
L 360.583443 254.292452 
L 362.231435 254.483729 
L 363.879428 255.054552 
L 368.823406 256.239604 
L 370.471398 256.302611 
L 372.119391 255.691053 
L 373.767383 254.280411 
L 375.415376 253.126067 
L 377.063369 251.766916 
L 378.711361 249.541252 
L 380.359354 244.9623 
L 382.007347 237.748061 
L 383.655339 228.673945 
L 386.951324 193.59369 
L 388.599317 181.538549 
L 390.24731 174.225663 
L 391.895302 164.034573 
L 393.543295 153.108396 
L 395.191287 156.542384 
L 396.83928 162.69388 
L 398.487273 157.584517 
L 398.487273 157.584517 
" style="fill:none;stroke:#ff7f0e;stroke-linecap:square;stroke-width:1.5;"/>
   </g>
   <g id="line2d_16">
    <path clip-path="url(#p653e037ffb)" d="M 73.832727 159.074041 
L 75.48072 158.770292 
L 77.128713 158.227717 
L 80.424698 158.199047 
L 82.07269 158.24939 
L 83.720683 162.507463 
L 85.368676 170.417583 
L 87.016668 172.764534 
L 88.664661 167.733297 
L 90.312653 170.552086 
L 91.960646 175.959268 
L 93.608639 185.613363 
L 95.256631 194.187072 
L 96.904624 206.911936 
L 98.552617 224.723129 
L 100.200609 235.646746 
L 101.848602 243.386241 
L 103.496594 249.029354 
L 105.144587 257.539088 
L 106.79258 262.607888 
L 108.440572 264.474275 
L 110.088565 265.19514 
L 111.736557 265.041632 
L 113.38455 264.365463 
L 115.032543 264.665611 
L 116.680535 266.278151 
L 118.328528 268.957786 
L 119.976521 270.254897 
L 121.624513 270.758821 
L 123.272506 272.004738 
L 126.568491 272.583537 
L 129.864476 271.11498 
L 131.512469 271.580926 
L 133.160461 271.811152 
L 134.808454 272.276932 
L 136.456447 272.374704 
L 138.104439 272.888838 
L 139.752432 272.333179 
L 141.400425 271.246763 
L 143.048417 269.940329 
L 144.69641 267.10543 
L 146.344402 261.387795 
L 149.640388 241.47747 
L 151.28838 228.988082 
L 152.936373 212.218465 
L 154.584365 190.982729 
L 156.232358 172.455082 
L 157.880351 163.692493 
L 159.528343 158.884752 
L 161.176336 158.94657 
L 162.824329 158.555508 
L 164.472321 158.652868 
L 166.120314 158.559572 
L 167.768306 158.603164 
L 171.064292 158.390391 
L 174.360277 158.144515 
L 176.008269 158.316077 
L 177.656262 157.943703 
L 179.304255 158.166702 
L 180.952247 158.084344 
L 184.248233 158.290993 
L 185.896225 157.683291 
L 187.544218 158.396519 
L 189.19221 158.637472 
L 190.840203 158.693092 
L 192.488196 160.004927 
L 194.136188 165.427323 
L 195.784181 174.455201 
L 197.432174 184.914784 
L 200.728159 202.942938 
L 202.376151 209.148359 
L 207.320129 231.760697 
L 208.968122 236.23026 
L 210.616114 241.867855 
L 212.264107 244.804991 
L 213.9121 244.70846 
L 215.560092 244.948194 
L 217.208085 245.053691 
L 218.856078 244.908546 
L 220.50407 242.706834 
L 222.152063 245.830379 
L 223.800055 250.904662 
L 225.448048 253.35767 
L 227.096041 255.579766 
L 228.744033 261.003803 
L 230.392026 264.886998 
L 232.040018 266.256552 
L 233.688011 266.593307 
L 235.336004 266.637437 
L 236.983996 267.363725 
L 238.631989 267.37689 
L 240.279982 268.35783 
L 241.927974 269.634793 
L 245.223959 272.688119 
L 248.519945 274.55928 
L 250.167937 275.004569 
L 251.81593 274.558582 
L 253.463922 274.344151 
L 255.111915 274.939338 
L 256.759908 274.926168 
L 260.055893 272.952507 
L 261.703886 272.192118 
L 263.351878 270.502988 
L 264.999871 267.519415 
L 266.647863 263.790996 
L 268.295856 259.218195 
L 269.943849 252.798164 
L 271.591841 244.938502 
L 273.239834 239.328576 
L 274.887826 231.411828 
L 276.535819 221.451126 
L 278.183812 212.881479 
L 279.831804 208.841788 
L 281.479797 200.223764 
L 283.12779 186.412061 
L 284.775782 183.117546 
L 286.423775 177.362463 
L 288.071767 169.649245 
L 289.71976 162.741813 
L 291.367753 159.982023 
L 293.015745 165.175002 
L 294.663738 162.260928 
L 296.311731 158.807499 
L 297.959723 159.24765 
L 299.607716 170.553232 
L 301.255708 167.07707 
L 302.903701 160.037473 
L 304.551694 162.530324 
L 306.199686 168.066044 
L 307.847679 166.470295 
L 309.495671 160.419834 
L 311.143664 166.713536 
L 312.791657 182.64245 
L 314.439649 185.025631 
L 317.735635 180.319411 
L 319.383627 186.732007 
L 321.03162 185.648978 
L 322.679612 179.387553 
L 324.327605 182.806188 
L 325.975598 193.912437 
L 327.62359 208.586601 
L 329.271583 206.890446 
L 330.919575 209.830361 
L 332.567568 221.416176 
L 334.215561 230.126297 
L 337.511546 241.110182 
L 339.159539 251.579943 
L 340.807531 260.130872 
L 342.455524 262.905219 
L 344.103516 264.286674 
L 345.751509 266.671598 
L 347.399502 270.140629 
L 349.047494 272.377035 
L 350.695487 272.831814 
L 352.343479 273.918852 
L 353.991472 274.777567 
L 358.93545 274.241812 
L 360.583443 274.002618 
L 362.231435 274.336073 
L 363.879428 275.013973 
L 368.823406 275.95851 
L 370.471398 275.996356 
L 372.119391 275.206654 
L 373.767383 273.878985 
L 375.415376 272.862869 
L 377.063369 271.696614 
L 378.711361 269.76222 
L 380.359354 265.375705 
L 382.007347 258.231831 
L 383.655339 249.522373 
L 385.303332 232.316249 
L 386.951324 211.450909 
L 388.599317 197.070317 
L 390.24731 188.240166 
L 393.543295 167.418076 
L 395.191287 168.051706 
L 396.83928 173.888995 
L 398.487273 170.670789 
L 398.487273 170.670789 
" style="fill:none;stroke:#2ca02c;stroke-linecap:square;stroke-width:1.5;"/>
   </g>
   <g id="line2d_17">
    <path clip-path="url(#p653e037ffb)" d="M 73.832727 111.181604 
L 75.48072 95.294916 
L 77.128713 91.961326 
L 78.776705 96.561411 
L 80.424698 99.694479 
L 82.07269 114.52665 
L 83.720683 133.251708 
L 85.368676 144.623224 
L 87.016668 146.08928 
L 88.664661 142.384246 
L 93.608639 149.100536 
L 96.904624 154.735379 
L 98.552617 158.622711 
L 100.200609 161.712542 
L 101.848602 163.796324 
L 105.144587 164.4157 
L 106.79258 164.692053 
L 108.440572 164.775276 
L 110.088565 164.734798 
L 111.736557 164.888898 
L 121.624513 164.361838 
L 124.920498 164.803625 
L 126.568491 164.688379 
L 128.216484 164.797925 
L 129.864476 164.574639 
L 136.456447 164.745282 
L 138.104439 164.51942 
L 139.752432 164.768366 
L 143.048417 164.714094 
L 144.69641 164.982972 
L 146.344402 165.430164 
L 147.992395 165.42987 
L 149.640388 163.855055 
L 151.28838 160.140524 
L 152.936373 157.570726 
L 154.584365 151.80289 
L 156.232358 144.467052 
L 157.880351 130.493418 
L 159.528343 115.053436 
L 162.824329 93.340967 
L 164.472321 89.452395 
L 167.768306 75.898376 
L 169.416299 67.256345 
L 172.712284 57.207706 
L 176.008269 55.166806 
L 177.656262 53.568 
L 179.304255 64.361837 
L 180.952247 72.292903 
L 182.60024 83.452803 
L 184.248233 88.076698 
L 185.896225 96.468573 
L 187.544218 113.394085 
L 189.19221 121.293492 
L 190.840203 124.723037 
L 192.488196 129.804748 
L 194.136188 137.198319 
L 195.784181 146.539942 
L 197.432174 148.907107 
L 199.080166 151.766533 
L 200.728159 154.064039 
L 202.376151 155.745801 
L 204.024144 156.953421 
L 205.672137 158.435533 
L 207.320129 160.631692 
L 208.968122 161.983537 
L 210.616114 163.865038 
L 212.264107 164.191782 
L 217.208085 164.068018 
L 218.856078 164.304866 
L 220.50407 164.100191 
L 222.152063 163.710252 
L 223.800055 164.391461 
L 225.448048 164.757844 
L 230.392026 164.656946 
L 233.688011 164.755687 
L 240.279982 164.647637 
L 241.927974 164.571325 
L 243.575967 164.359481 
L 245.223959 164.695668 
L 246.871952 164.050636 
L 250.167937 163.910917 
L 253.463922 164.056551 
L 256.759908 163.888012 
L 258.4079 164.247073 
L 260.055893 164.261234 
L 261.703886 164.862702 
L 263.351878 164.752844 
L 266.647863 165.131628 
L 268.295856 165.156728 
L 269.943849 165.423732 
L 271.591841 164.353348 
L 273.239834 163.114444 
L 276.535819 158.461185 
L 279.831804 155.883528 
L 281.479797 154.069286 
L 283.12779 150.234306 
L 284.775782 148.519479 
L 286.423775 147.21346 
L 288.071767 142.590626 
L 289.71976 128.037789 
L 291.367753 129.49875 
L 293.015745 136.659778 
L 296.311731 123.596343 
L 297.959723 128.737272 
L 299.607716 144.765161 
L 301.255708 138.99343 
L 302.903701 127.033533 
L 304.551694 132.512881 
L 306.199686 142.790638 
L 307.847679 137.896521 
L 309.495671 127.753184 
L 311.143664 138.497338 
L 312.791657 148.36917 
L 314.439649 149.016066 
L 317.735635 147.758479 
L 319.383627 149.644278 
L 321.03162 149.636914 
L 322.679612 147.532595 
L 324.327605 148.398147 
L 325.975598 151.536105 
L 327.62359 155.579357 
L 329.271583 155.219106 
L 330.919575 155.996662 
L 332.567568 157.878351 
L 334.215561 160.199921 
L 337.511546 163.47463 
L 339.159539 163.764574 
L 340.807531 164.602885 
L 342.455524 164.793627 
L 347.399502 164.361987 
L 349.047494 164.641005 
L 350.695487 164.516199 
L 352.343479 163.981839 
L 353.991472 164.052399 
L 355.639465 163.979756 
L 360.583443 164.149747 
L 363.879428 163.910325 
L 368.823406 163.390043 
L 370.471398 163.365288 
L 372.119391 163.697061 
L 373.767383 164.240638 
L 375.415376 164.355105 
L 377.063369 164.766881 
L 378.711361 164.799921 
L 380.359354 165.21336 
L 382.007347 165.267464 
L 383.655339 165.586491 
L 385.303332 161.062779 
L 386.951324 157.117075 
L 388.599317 153.614952 
L 390.24731 150.736114 
L 391.895302 147.297965 
L 393.543295 140.529518 
L 395.191287 142.700797 
L 396.83928 146.470966 
L 398.487273 144.299691 
L 398.487273 144.299691 
" style="fill:none;stroke:#d62728;stroke-linecap:square;stroke-width:1.5;"/>
   </g>
   <g id="patch_3">
    <path d="M 57.6 307.584 
L 57.6 41.472 
" style="fill:none;stroke:#000000;stroke-linecap:square;stroke-linejoin:miter;stroke-width:0.8;"/>
   </g>
   <g id="patch_4">
    <path d="M 414.72 307.584 
L 414.72 41.472 
" style="fill:none;stroke:#000000;stroke-linecap:square;stroke-linejoin:miter;stroke-width:0.8;"/>
   </g>
   <g id="patch_5">
    <path d="M 57.6 307.584 
L 414.72 307.584 
" style="fill:none;stroke:#000000;stroke-linecap:square;stroke-linejoin:miter;stroke-width:0.8;"/>
   </g>
   <g id="patch_6">
    <path d="M 57.6 41.472 
L 414.72 41.472 
" style="fill:none;stroke:#000000;stroke-linecap:square;stroke-linejoin:miter;stroke-width:0.8;"/>
   </g>
   <g id="text_14">
    <!-- Plot of Test Data vs MCMC Uncertainty  -->
    <defs>
     <path d="M 19.671875 64.796875 
L 19.671875 37.40625 
L 32.078125 37.40625 
Q 38.96875 37.40625 42.71875 40.96875 
Q 46.484375 44.53125 46.484375 51.125 
Q 46.484375 57.671875 42.71875 61.234375 
Q 38.96875 64.796875 32.078125 64.796875 
z
M 9.8125 72.90625 
L 32.078125 72.90625 
Q 44.34375 72.90625 50.609375 67.359375 
Q 56.890625 61.8125 56.890625 51.125 
Q 56.890625 40.328125 50.609375 34.8125 
Q 44.34375 29.296875 32.078125 29.296875 
L 19.671875 29.296875 
L 19.671875 0 
L 9.8125 0 
z
" id="DejaVuSans-50"/>
     <path d="M 9.421875 75.984375 
L 18.40625 75.984375 
L 18.40625 0 
L 9.421875 0 
z
" id="DejaVuSans-6c"/>
     <path d="M 30.609375 48.390625 
Q 23.390625 48.390625 19.1875 42.75 
Q 14.984375 37.109375 14.984375 27.296875 
Q 14.984375 17.484375 19.15625 11.84375 
Q 23.34375 6.203125 30.609375 6.203125 
Q 37.796875 6.203125 41.984375 11.859375 
Q 46.1875 17.53125 46.1875 27.296875 
Q 46.1875 37.015625 41.984375 42.703125 
Q 37.796875 48.390625 30.609375 48.390625 
z
M 30.609375 56 
Q 42.328125 56 49.015625 48.375 
Q 55.71875 40.765625 55.71875 27.296875 
Q 55.71875 13.875 49.015625 6.21875 
Q 42.328125 -1.421875 30.609375 -1.421875 
Q 18.84375 -1.421875 12.171875 6.21875 
Q 5.515625 13.875 5.515625 27.296875 
Q 5.515625 40.765625 12.171875 48.375 
Q 18.84375 56 30.609375 56 
z
" id="DejaVuSans-6f"/>
     <path d="M 18.3125 70.21875 
L 18.3125 54.6875 
L 36.8125 54.6875 
L 36.8125 47.703125 
L 18.3125 47.703125 
L 18.3125 18.015625 
Q 18.3125 11.328125 20.140625 9.421875 
Q 21.96875 7.515625 27.59375 7.515625 
L 36.8125 7.515625 
L 36.8125 0 
L 27.59375 0 
Q 17.1875 0 13.234375 3.875 
Q 9.28125 7.765625 9.28125 18.015625 
L 9.28125 47.703125 
L 2.6875 47.703125 
L 2.6875 54.6875 
L 9.28125 54.6875 
L 9.28125 70.21875 
z
" id="DejaVuSans-74"/>
     <path id="DejaVuSans-20"/>
     <path d="M 37.109375 75.984375 
L 37.109375 68.5 
L 28.515625 68.5 
Q 23.6875 68.5 21.796875 66.546875 
Q 19.921875 64.59375 19.921875 59.515625 
L 19.921875 54.6875 
L 34.71875 54.6875 
L 34.71875 47.703125 
L 19.921875 47.703125 
L 19.921875 0 
L 10.890625 0 
L 10.890625 47.703125 
L 2.296875 47.703125 
L 2.296875 54.6875 
L 10.890625 54.6875 
L 10.890625 58.5 
Q 10.890625 67.625 15.140625 71.796875 
Q 19.390625 75.984375 28.609375 75.984375 
z
" id="DejaVuSans-66"/>
     <path d="M -0.296875 72.90625 
L 61.375 72.90625 
L 61.375 64.59375 
L 35.5 64.59375 
L 35.5 0 
L 25.59375 0 
L 25.59375 64.59375 
L -0.296875 64.59375 
z
" id="DejaVuSans-54"/>
     <path d="M 56.203125 29.59375 
L 56.203125 25.203125 
L 14.890625 25.203125 
Q 15.484375 15.921875 20.484375 11.0625 
Q 25.484375 6.203125 34.421875 6.203125 
Q 39.59375 6.203125 44.453125 7.46875 
Q 49.3125 8.734375 54.109375 11.28125 
L 54.109375 2.78125 
Q 49.265625 0.734375 44.1875 -0.34375 
Q 39.109375 -1.421875 33.890625 -1.421875 
Q 20.796875 -1.421875 13.15625 6.1875 
Q 5.515625 13.8125 5.515625 26.8125 
Q 5.515625 40.234375 12.765625 48.109375 
Q 20.015625 56 32.328125 56 
Q 43.359375 56 49.78125 48.890625 
Q 56.203125 41.796875 56.203125 29.59375 
z
M 47.21875 32.234375 
Q 47.125 39.59375 43.09375 43.984375 
Q 39.0625 48.390625 32.421875 48.390625 
Q 24.90625 48.390625 20.390625 44.140625 
Q 15.875 39.890625 15.1875 32.171875 
z
" id="DejaVuSans-65"/>
     <path d="M 44.28125 53.078125 
L 44.28125 44.578125 
Q 40.484375 46.53125 36.375 47.5 
Q 32.28125 48.484375 27.875 48.484375 
Q 21.1875 48.484375 17.84375 46.4375 
Q 14.5 44.390625 14.5 40.28125 
Q 14.5 37.15625 16.890625 35.375 
Q 19.28125 33.59375 26.515625 31.984375 
L 29.59375 31.296875 
Q 39.15625 29.25 43.1875 25.515625 
Q 47.21875 21.78125 47.21875 15.09375 
Q 47.21875 7.46875 41.1875 3.015625 
Q 35.15625 -1.421875 24.609375 -1.421875 
Q 20.21875 -1.421875 15.453125 -0.5625 
Q 10.6875 0.296875 5.421875 2 
L 5.421875 11.28125 
Q 10.40625 8.6875 15.234375 7.390625 
Q 20.0625 6.109375 24.8125 6.109375 
Q 31.15625 6.109375 34.5625 8.28125 
Q 37.984375 10.453125 37.984375 14.40625 
Q 37.984375 18.0625 35.515625 20.015625 
Q 33.0625 21.96875 24.703125 23.78125 
L 21.578125 24.515625 
Q 13.234375 26.265625 9.515625 29.90625 
Q 5.8125 33.546875 5.8125 39.890625 
Q 5.8125 47.609375 11.28125 51.796875 
Q 16.75 56 26.8125 56 
Q 31.78125 56 36.171875 55.265625 
Q 40.578125 54.546875 44.28125 53.078125 
z
" id="DejaVuSans-73"/>
     <path d="M 19.671875 64.796875 
L 19.671875 8.109375 
L 31.59375 8.109375 
Q 46.6875 8.109375 53.6875 14.9375 
Q 60.6875 21.78125 60.6875 36.53125 
Q 60.6875 51.171875 53.6875 57.984375 
Q 46.6875 64.796875 31.59375 64.796875 
z
M 9.8125 72.90625 
L 30.078125 72.90625 
Q 51.265625 72.90625 61.171875 64.09375 
Q 71.09375 55.28125 71.09375 36.53125 
Q 71.09375 17.671875 61.125 8.828125 
Q 51.171875 0 30.078125 0 
L 9.8125 0 
z
" id="DejaVuSans-44"/>
     <path d="M 34.28125 27.484375 
Q 23.390625 27.484375 19.1875 25 
Q 14.984375 22.515625 14.984375 16.5 
Q 14.984375 11.71875 18.140625 8.90625 
Q 21.296875 6.109375 26.703125 6.109375 
Q 34.1875 6.109375 38.703125 11.40625 
Q 43.21875 16.703125 43.21875 25.484375 
L 43.21875 27.484375 
z
M 52.203125 31.203125 
L 52.203125 0 
L 43.21875 0 
L 43.21875 8.296875 
Q 40.140625 3.328125 35.546875 0.953125 
Q 30.953125 -1.421875 24.3125 -1.421875 
Q 15.921875 -1.421875 10.953125 3.296875 
Q 6 8.015625 6 15.921875 
Q 6 25.140625 12.171875 29.828125 
Q 18.359375 34.515625 30.609375 34.515625 
L 43.21875 34.515625 
L 43.21875 35.40625 
Q 43.21875 41.609375 39.140625 45 
Q 35.0625 48.390625 27.6875 48.390625 
Q 23 48.390625 18.546875 47.265625 
Q 14.109375 46.140625 10.015625 43.890625 
L 10.015625 52.203125 
Q 14.9375 54.109375 19.578125 55.046875 
Q 24.21875 56 28.609375 56 
Q 40.484375 56 46.34375 49.84375 
Q 52.203125 43.703125 52.203125 31.203125 
z
" id="DejaVuSans-61"/>
     <path d="M 2.984375 54.6875 
L 12.5 54.6875 
L 29.59375 8.796875 
L 46.6875 54.6875 
L 56.203125 54.6875 
L 35.6875 0 
L 23.484375 0 
z
" id="DejaVuSans-76"/>
     <path d="M 9.8125 72.90625 
L 24.515625 72.90625 
L 43.109375 23.296875 
L 61.8125 72.90625 
L 76.515625 72.90625 
L 76.515625 0 
L 66.890625 0 
L 66.890625 64.015625 
L 48.09375 14.015625 
L 38.1875 14.015625 
L 19.390625 64.015625 
L 19.390625 0 
L 9.8125 0 
z
" id="DejaVuSans-4d"/>
     <path d="M 64.40625 67.28125 
L 64.40625 56.890625 
Q 59.421875 61.53125 53.78125 63.8125 
Q 48.140625 66.109375 41.796875 66.109375 
Q 29.296875 66.109375 22.65625 58.46875 
Q 16.015625 50.828125 16.015625 36.375 
Q 16.015625 21.96875 22.65625 14.328125 
Q 29.296875 6.6875 41.796875 6.6875 
Q 48.140625 6.6875 53.78125 8.984375 
Q 59.421875 11.28125 64.40625 15.921875 
L 64.40625 5.609375 
Q 59.234375 2.09375 53.4375 0.328125 
Q 47.65625 -1.421875 41.21875 -1.421875 
Q 24.65625 -1.421875 15.125 8.703125 
Q 5.609375 18.84375 5.609375 36.375 
Q 5.609375 53.953125 15.125 64.078125 
Q 24.65625 74.21875 41.21875 74.21875 
Q 47.75 74.21875 53.53125 72.484375 
Q 59.328125 70.75 64.40625 67.28125 
z
" id="DejaVuSans-43"/>
     <path d="M 8.6875 72.90625 
L 18.609375 72.90625 
L 18.609375 28.609375 
Q 18.609375 16.890625 22.84375 11.734375 
Q 27.09375 6.59375 36.625 6.59375 
Q 46.09375 6.59375 50.34375 11.734375 
Q 54.59375 16.890625 54.59375 28.609375 
L 54.59375 72.90625 
L 64.5 72.90625 
L 64.5 27.390625 
Q 64.5 13.140625 57.4375 5.859375 
Q 50.390625 -1.421875 36.625 -1.421875 
Q 22.796875 -1.421875 15.734375 5.859375 
Q 8.6875 13.140625 8.6875 27.390625 
z
" id="DejaVuSans-55"/>
     <path d="M 54.890625 33.015625 
L 54.890625 0 
L 45.90625 0 
L 45.90625 32.71875 
Q 45.90625 40.484375 42.875 44.328125 
Q 39.84375 48.1875 33.796875 48.1875 
Q 26.515625 48.1875 22.3125 43.546875 
Q 18.109375 38.921875 18.109375 30.90625 
L 18.109375 0 
L 9.078125 0 
L 9.078125 54.6875 
L 18.109375 54.6875 
L 18.109375 46.1875 
Q 21.34375 51.125 25.703125 53.5625 
Q 30.078125 56 35.796875 56 
Q 45.21875 56 50.046875 50.171875 
Q 54.890625 44.34375 54.890625 33.015625 
z
" id="DejaVuSans-6e"/>
     <path d="M 48.78125 52.59375 
L 48.78125 44.1875 
Q 44.96875 46.296875 41.140625 47.34375 
Q 37.3125 48.390625 33.40625 48.390625 
Q 24.65625 48.390625 19.8125 42.84375 
Q 14.984375 37.3125 14.984375 27.296875 
Q 14.984375 17.28125 19.8125 11.734375 
Q 24.65625 6.203125 33.40625 6.203125 
Q 37.3125 6.203125 41.140625 7.25 
Q 44.96875 8.296875 48.78125 10.40625 
L 48.78125 2.09375 
Q 45.015625 0.34375 40.984375 -0.53125 
Q 36.96875 -1.421875 32.421875 -1.421875 
Q 20.0625 -1.421875 12.78125 6.34375 
Q 5.515625 14.109375 5.515625 27.296875 
Q 5.515625 40.671875 12.859375 48.328125 
Q 20.21875 56 33.015625 56 
Q 37.15625 56 41.109375 55.140625 
Q 45.0625 54.296875 48.78125 52.59375 
z
" id="DejaVuSans-63"/>
     <path d="M 41.109375 46.296875 
Q 39.59375 47.171875 37.8125 47.578125 
Q 36.03125 48 33.890625 48 
Q 26.265625 48 22.1875 43.046875 
Q 18.109375 38.09375 18.109375 28.8125 
L 18.109375 0 
L 9.078125 0 
L 9.078125 54.6875 
L 18.109375 54.6875 
L 18.109375 46.1875 
Q 20.953125 51.171875 25.484375 53.578125 
Q 30.03125 56 36.53125 56 
Q 37.453125 56 38.578125 55.875 
Q 39.703125 55.765625 41.0625 55.515625 
z
" id="DejaVuSans-72"/>
     <path d="M 9.421875 54.6875 
L 18.40625 54.6875 
L 18.40625 0 
L 9.421875 0 
z
M 9.421875 75.984375 
L 18.40625 75.984375 
L 18.40625 64.59375 
L 9.421875 64.59375 
z
" id="DejaVuSans-69"/>
     <path d="M 32.171875 -5.078125 
Q 28.375 -14.84375 24.75 -17.8125 
Q 21.140625 -20.796875 15.09375 -20.796875 
L 7.90625 -20.796875 
L 7.90625 -13.28125 
L 13.1875 -13.28125 
Q 16.890625 -13.28125 18.9375 -11.515625 
Q 21 -9.765625 23.484375 -3.21875 
L 25.09375 0.875 
L 2.984375 54.6875 
L 12.5 54.6875 
L 29.59375 11.921875 
L 46.6875 54.6875 
L 56.203125 54.6875 
z
" id="DejaVuSans-79"/>
    </defs>
    <g transform="translate(118.112813 35.472)scale(0.12 -0.12)">
     <use xlink:href="#DejaVuSans-50"/>
     <use x="60.302734" xlink:href="#DejaVuSans-6c"/>
     <use x="88.085938" xlink:href="#DejaVuSans-6f"/>
     <use x="149.267578" xlink:href="#DejaVuSans-74"/>
     <use x="188.476562" xlink:href="#DejaVuSans-20"/>
     <use x="220.263672" xlink:href="#DejaVuSans-6f"/>
     <use x="281.445312" xlink:href="#DejaVuSans-66"/>
     <use x="316.650391" xlink:href="#DejaVuSans-20"/>
     <use x="348.4375" xlink:href="#DejaVuSans-54"/>
     <use x="409.255859" xlink:href="#DejaVuSans-65"/>
     <use x="470.779297" xlink:href="#DejaVuSans-73"/>
     <use x="522.878906" xlink:href="#DejaVuSans-74"/>
     <use x="562.087891" xlink:href="#DejaVuSans-20"/>
     <use x="593.875" xlink:href="#DejaVuSans-44"/>
     <use x="670.876953" xlink:href="#DejaVuSans-61"/>
     <use x="732.15625" xlink:href="#DejaVuSans-74"/>
     <use x="771.365234" xlink:href="#DejaVuSans-61"/>
     <use x="832.644531" xlink:href="#DejaVuSans-20"/>
     <use x="864.431641" xlink:href="#DejaVuSans-76"/>
     <use x="923.611328" xlink:href="#DejaVuSans-73"/>
     <use x="975.710938" xlink:href="#DejaVuSans-20"/>
     <use x="1007.498047" xlink:href="#DejaVuSans-4d"/>
     <use x="1093.777344" xlink:href="#DejaVuSans-43"/>
     <use x="1163.601562" xlink:href="#DejaVuSans-4d"/>
     <use x="1249.880859" xlink:href="#DejaVuSans-43"/>
     <use x="1319.705078" xlink:href="#DejaVuSans-20"/>
     <use x="1351.492188" xlink:href="#DejaVuSans-55"/>
     <use x="1424.685547" xlink:href="#DejaVuSans-6e"/>
     <use x="1488.064453" xlink:href="#DejaVuSans-63"/>
     <use x="1543.044922" xlink:href="#DejaVuSans-65"/>
     <use x="1604.568359" xlink:href="#DejaVuSans-72"/>
     <use x="1645.681641" xlink:href="#DejaVuSans-74"/>
     <use x="1684.890625" xlink:href="#DejaVuSans-61"/>
     <use x="1746.169922" xlink:href="#DejaVuSans-69"/>
     <use x="1773.953125" xlink:href="#DejaVuSans-6e"/>
     <use x="1837.332031" xlink:href="#DejaVuSans-74"/>
     <use x="1876.541016" xlink:href="#DejaVuSans-79"/>
     <use x="1935.720703" xlink:href="#DejaVuSans-20"/>
    </g>
   </g>
   <g id="legend_1">
    <g id="patch_7">
     <path d="M 277.843437 108.1845 
L 407.72 108.1845 
Q 409.72 108.1845 409.72 106.1845 
L 409.72 48.472 
Q 409.72 46.472 407.72 46.472 
L 277.843437 46.472 
Q 275.843437 46.472 275.843437 48.472 
L 275.843437 106.1845 
Q 275.843437 108.1845 277.843437 108.1845 
z
" style="fill:#ffffff;opacity:0.8;stroke:#cccccc;stroke-linejoin:miter;"/>
    </g>
    <g id="line2d_18">
     <path d="M 279.843437 54.570438 
L 299.843437 54.570438 
" style="fill:none;stroke:#1f77b4;stroke-linecap:square;stroke-width:1.5;"/>
    </g>
    <g id="line2d_19"/>
    <g id="text_15">
     <!-- actual -->
     <defs>
      <path d="M 8.5 21.578125 
L 8.5 54.6875 
L 17.484375 54.6875 
L 17.484375 21.921875 
Q 17.484375 14.15625 20.5 10.265625 
Q 23.53125 6.390625 29.59375 6.390625 
Q 36.859375 6.390625 41.078125 11.03125 
Q 45.3125 15.671875 45.3125 23.6875 
L 45.3125 54.6875 
L 54.296875 54.6875 
L 54.296875 0 
L 45.3125 0 
L 45.3125 8.40625 
Q 42.046875 3.421875 37.71875 1 
Q 33.40625 -1.421875 27.6875 -1.421875 
Q 18.265625 -1.421875 13.375 4.4375 
Q 8.5 10.296875 8.5 21.578125 
z
M 31.109375 56 
z
" id="DejaVuSans-75"/>
     </defs>
     <g transform="translate(307.843437 58.070438)scale(0.1 -0.1)">
      <use xlink:href="#DejaVuSans-61"/>
      <use x="61.279297" xlink:href="#DejaVuSans-63"/>
      <use x="116.259766" xlink:href="#DejaVuSans-74"/>
      <use x="155.46875" xlink:href="#DejaVuSans-75"/>
      <use x="218.847656" xlink:href="#DejaVuSans-61"/>
      <use x="280.126953" xlink:href="#DejaVuSans-6c"/>
     </g>
    </g>
    <g id="line2d_20">
     <path d="M 279.843437 69.248563 
L 299.843437 69.248563 
" style="fill:none;stroke:#ff7f0e;stroke-linecap:square;stroke-width:1.5;"/>
    </g>
    <g id="line2d_21"/>
    <g id="text_16">
     <!-- pred. (mean) -->
     <defs>
      <path d="M 18.109375 8.203125 
L 18.109375 -20.796875 
L 9.078125 -20.796875 
L 9.078125 54.6875 
L 18.109375 54.6875 
L 18.109375 46.390625 
Q 20.953125 51.265625 25.265625 53.625 
Q 29.59375 56 35.59375 56 
Q 45.5625 56 51.78125 48.09375 
Q 58.015625 40.1875 58.015625 27.296875 
Q 58.015625 14.40625 51.78125 6.484375 
Q 45.5625 -1.421875 35.59375 -1.421875 
Q 29.59375 -1.421875 25.265625 0.953125 
Q 20.953125 3.328125 18.109375 8.203125 
z
M 48.6875 27.296875 
Q 48.6875 37.203125 44.609375 42.84375 
Q 40.53125 48.484375 33.40625 48.484375 
Q 26.265625 48.484375 22.1875 42.84375 
Q 18.109375 37.203125 18.109375 27.296875 
Q 18.109375 17.390625 22.1875 11.75 
Q 26.265625 6.109375 33.40625 6.109375 
Q 40.53125 6.109375 44.609375 11.75 
Q 48.6875 17.390625 48.6875 27.296875 
z
" id="DejaVuSans-70"/>
      <path d="M 45.40625 46.390625 
L 45.40625 75.984375 
L 54.390625 75.984375 
L 54.390625 0 
L 45.40625 0 
L 45.40625 8.203125 
Q 42.578125 3.328125 38.25 0.953125 
Q 33.9375 -1.421875 27.875 -1.421875 
Q 17.96875 -1.421875 11.734375 6.484375 
Q 5.515625 14.40625 5.515625 27.296875 
Q 5.515625 40.1875 11.734375 48.09375 
Q 17.96875 56 27.875 56 
Q 33.9375 56 38.25 53.625 
Q 42.578125 51.265625 45.40625 46.390625 
z
M 14.796875 27.296875 
Q 14.796875 17.390625 18.875 11.75 
Q 22.953125 6.109375 30.078125 6.109375 
Q 37.203125 6.109375 41.296875 11.75 
Q 45.40625 17.390625 45.40625 27.296875 
Q 45.40625 37.203125 41.296875 42.84375 
Q 37.203125 48.484375 30.078125 48.484375 
Q 22.953125 48.484375 18.875 42.84375 
Q 14.796875 37.203125 14.796875 27.296875 
z
" id="DejaVuSans-64"/>
      <path d="M 31 75.875 
Q 24.46875 64.65625 21.28125 53.65625 
Q 18.109375 42.671875 18.109375 31.390625 
Q 18.109375 20.125 21.3125 9.0625 
Q 24.515625 -2 31 -13.1875 
L 23.1875 -13.1875 
Q 15.875 -1.703125 12.234375 9.375 
Q 8.59375 20.453125 8.59375 31.390625 
Q 8.59375 42.28125 12.203125 53.3125 
Q 15.828125 64.359375 23.1875 75.875 
z
" id="DejaVuSans-28"/>
      <path d="M 52 44.1875 
Q 55.375 50.25 60.0625 53.125 
Q 64.75 56 71.09375 56 
Q 79.640625 56 84.28125 50.015625 
Q 88.921875 44.046875 88.921875 33.015625 
L 88.921875 0 
L 79.890625 0 
L 79.890625 32.71875 
Q 79.890625 40.578125 77.09375 44.375 
Q 74.3125 48.1875 68.609375 48.1875 
Q 61.625 48.1875 57.5625 43.546875 
Q 53.515625 38.921875 53.515625 30.90625 
L 53.515625 0 
L 44.484375 0 
L 44.484375 32.71875 
Q 44.484375 40.625 41.703125 44.40625 
Q 38.921875 48.1875 33.109375 48.1875 
Q 26.21875 48.1875 22.15625 43.53125 
Q 18.109375 38.875 18.109375 30.90625 
L 18.109375 0 
L 9.078125 0 
L 9.078125 54.6875 
L 18.109375 54.6875 
L 18.109375 46.1875 
Q 21.1875 51.21875 25.484375 53.609375 
Q 29.78125 56 35.6875 56 
Q 41.65625 56 45.828125 52.96875 
Q 50 49.953125 52 44.1875 
z
" id="DejaVuSans-6d"/>
      <path d="M 8.015625 75.875 
L 15.828125 75.875 
Q 23.140625 64.359375 26.78125 53.3125 
Q 30.421875 42.28125 30.421875 31.390625 
Q 30.421875 20.453125 26.78125 9.375 
Q 23.140625 -1.703125 15.828125 -13.1875 
L 8.015625 -13.1875 
Q 14.5 -2 17.703125 9.0625 
Q 20.90625 20.125 20.90625 31.390625 
Q 20.90625 42.671875 17.703125 53.65625 
Q 14.5 64.65625 8.015625 75.875 
z
" id="DejaVuSans-29"/>
     </defs>
     <g transform="translate(307.843437 72.748563)scale(0.1 -0.1)">
      <use xlink:href="#DejaVuSans-70"/>
      <use x="63.476562" xlink:href="#DejaVuSans-72"/>
      <use x="104.558594" xlink:href="#DejaVuSans-65"/>
      <use x="166.082031" xlink:href="#DejaVuSans-64"/>
      <use x="229.558594" xlink:href="#DejaVuSans-2e"/>
      <use x="261.345703" xlink:href="#DejaVuSans-20"/>
      <use x="293.132812" xlink:href="#DejaVuSans-28"/>
      <use x="332.146484" xlink:href="#DejaVuSans-6d"/>
      <use x="429.558594" xlink:href="#DejaVuSans-65"/>
      <use x="491.082031" xlink:href="#DejaVuSans-61"/>
      <use x="552.361328" xlink:href="#DejaVuSans-6e"/>
      <use x="615.740234" xlink:href="#DejaVuSans-29"/>
     </g>
    </g>
    <g id="line2d_22">
     <path d="M 279.843437 83.926688 
L 299.843437 83.926688 
" style="fill:none;stroke:#2ca02c;stroke-linecap:square;stroke-width:1.5;"/>
    </g>
    <g id="line2d_23"/>
    <g id="text_17">
     <!-- pred.(5th percen.) -->
     <defs>
      <path d="M 54.890625 33.015625 
L 54.890625 0 
L 45.90625 0 
L 45.90625 32.71875 
Q 45.90625 40.484375 42.875 44.328125 
Q 39.84375 48.1875 33.796875 48.1875 
Q 26.515625 48.1875 22.3125 43.546875 
Q 18.109375 38.921875 18.109375 30.90625 
L 18.109375 0 
L 9.078125 0 
L 9.078125 75.984375 
L 18.109375 75.984375 
L 18.109375 46.1875 
Q 21.34375 51.125 25.703125 53.5625 
Q 30.078125 56 35.796875 56 
Q 45.21875 56 50.046875 50.171875 
Q 54.890625 44.34375 54.890625 33.015625 
z
" id="DejaVuSans-68"/>
     </defs>
     <g transform="translate(307.843437 87.426688)scale(0.1 -0.1)">
      <use xlink:href="#DejaVuSans-70"/>
      <use x="63.476562" xlink:href="#DejaVuSans-72"/>
      <use x="104.558594" xlink:href="#DejaVuSans-65"/>
      <use x="166.082031" xlink:href="#DejaVuSans-64"/>
      <use x="229.558594" xlink:href="#DejaVuSans-2e"/>
      <use x="261.345703" xlink:href="#DejaVuSans-28"/>
      <use x="300.359375" xlink:href="#DejaVuSans-35"/>
      <use x="363.982422" xlink:href="#DejaVuSans-74"/>
      <use x="403.191406" xlink:href="#DejaVuSans-68"/>
      <use x="466.570312" xlink:href="#DejaVuSans-20"/>
      <use x="498.357422" xlink:href="#DejaVuSans-70"/>
      <use x="561.833984" xlink:href="#DejaVuSans-65"/>
      <use x="623.357422" xlink:href="#DejaVuSans-72"/>
      <use x="664.439453" xlink:href="#DejaVuSans-63"/>
      <use x="719.419922" xlink:href="#DejaVuSans-65"/>
      <use x="780.943359" xlink:href="#DejaVuSans-6e"/>
      <use x="844.322266" xlink:href="#DejaVuSans-2e"/>
      <use x="876.109375" xlink:href="#DejaVuSans-29"/>
     </g>
    </g>
    <g id="line2d_24">
     <path d="M 279.843437 98.604813 
L 299.843437 98.604813 
" style="fill:none;stroke:#d62728;stroke-linecap:square;stroke-width:1.5;"/>
    </g>
    <g id="line2d_25"/>
    <g id="text_18">
     <!-- pred.(95th percen.) -->
     <defs>
      <path d="M 10.984375 1.515625 
L 10.984375 10.5 
Q 14.703125 8.734375 18.5 7.8125 
Q 22.3125 6.890625 25.984375 6.890625 
Q 35.75 6.890625 40.890625 13.453125 
Q 46.046875 20.015625 46.78125 33.40625 
Q 43.953125 29.203125 39.59375 26.953125 
Q 35.25 24.703125 29.984375 24.703125 
Q 19.046875 24.703125 12.671875 31.3125 
Q 6.296875 37.9375 6.296875 49.421875 
Q 6.296875 60.640625 12.9375 67.421875 
Q 19.578125 74.21875 30.609375 74.21875 
Q 43.265625 74.21875 49.921875 64.515625 
Q 56.59375 54.828125 56.59375 36.375 
Q 56.59375 19.140625 48.40625 8.859375 
Q 40.234375 -1.421875 26.421875 -1.421875 
Q 22.703125 -1.421875 18.890625 -0.6875 
Q 15.09375 0.046875 10.984375 1.515625 
z
M 30.609375 32.421875 
Q 37.25 32.421875 41.125 36.953125 
Q 45.015625 41.5 45.015625 49.421875 
Q 45.015625 57.28125 41.125 61.84375 
Q 37.25 66.40625 30.609375 66.40625 
Q 23.96875 66.40625 20.09375 61.84375 
Q 16.21875 57.28125 16.21875 49.421875 
Q 16.21875 41.5 20.09375 36.953125 
Q 23.96875 32.421875 30.609375 32.421875 
z
" id="DejaVuSans-39"/>
     </defs>
     <g transform="translate(307.843437 102.104813)scale(0.1 -0.1)">
      <use xlink:href="#DejaVuSans-70"/>
      <use x="63.476562" xlink:href="#DejaVuSans-72"/>
      <use x="104.558594" xlink:href="#DejaVuSans-65"/>
      <use x="166.082031" xlink:href="#DejaVuSans-64"/>
      <use x="229.558594" xlink:href="#DejaVuSans-2e"/>
      <use x="261.345703" xlink:href="#DejaVuSans-28"/>
      <use x="300.359375" xlink:href="#DejaVuSans-39"/>
      <use x="363.982422" xlink:href="#DejaVuSans-35"/>
      <use x="427.605469" xlink:href="#DejaVuSans-74"/>
      <use x="466.814453" xlink:href="#DejaVuSans-68"/>
      <use x="530.193359" xlink:href="#DejaVuSans-20"/>
      <use x="561.980469" xlink:href="#DejaVuSans-70"/>
      <use x="625.457031" xlink:href="#DejaVuSans-65"/>
      <use x="686.980469" xlink:href="#DejaVuSans-72"/>
      <use x="728.0625" xlink:href="#DejaVuSans-63"/>
      <use x="783.042969" xlink:href="#DejaVuSans-65"/>
      <use x="844.566406" xlink:href="#DejaVuSans-6e"/>
      <use x="907.945312" xlink:href="#DejaVuSans-2e"/>
      <use x="939.732422" xlink:href="#DejaVuSans-29"/>
     </g>
    </g>
   </g>
  </g>
 </g>
 <defs>
  <clipPath id="p653e037ffb">
   <rect height="266.112" width="357.12" x="57.6" y="41.472"/>
  </clipPath>
 </defs>
</svg>
